<svg width="184" height="85" viewBox="0 0 184 85" fill="none" xmlns="http://www.w3.org/2000/svg">
<path d="M91.267 85C77.1634 85 58.0869 76.25 63.0652 30C84.6308 53.75 91.267 67.5 91.267 85Z" fill="#8FC0A9"/>
<path d="M92.0982 85C106.202 85 125.278 76.25 120.3 30C98.7344 53.75 92.0982 67.5 92.0982 85Z" fill="#8FC0A9"/>
<path d="M2.23026 83.24H45.2425C46.517 83.24 47.4728 82.12 47.4728 81C47.4728 79.72 46.517 78.76 45.2425 78.76H4.46053V37.68H45.2425C46.517 37.68 47.4728 36.72 47.4728 35.44C47.4728 34.32 46.517 33.2 45.2425 33.2H4.46053V4.48H45.2425C46.517 4.48 47.4728 3.51999 47.4728 2.24C47.4728 1.12 46.517 0 45.2425 0H2.23026C0.955818 0 0 1.12 0 2.24V81C0 82.12 0.955818 83.24 2.23026 83.24Z" fill="white"/>
<path d="M181.77 28.7207C180.495 28.7207 179.54 29.8407 179.54 30.9607V41.6807C175.079 33.5207 166.795 27.7607 157.237 27.7607C142.262 27.7607 131.589 41.2007 131.589 55.6007C131.589 70.0007 142.262 83.4407 157.237 83.4407C166.795 83.4407 175.079 77.6807 179.54 69.5207V79.7607C179.54 81.0407 180.495 82.0007 181.77 82.0007C183.044 82.0007 184 81.0407 184 79.7607V30.9607C184 29.8407 183.044 28.7207 181.77 28.7207ZM157.237 78.9607C144.811 78.9607 136.049 67.6007 136.049 55.6007C136.049 43.6007 144.811 32.2407 157.237 32.2407C169.822 32.2407 178.424 43.6007 178.424 55.6007C178.424 67.6007 169.822 78.9607 157.237 78.9607Z" fill="white"/>
</svg>
