<svg width="942" height="408" viewBox="0 0 942 408" fill="none" xmlns="http://www.w3.org/2000/svg">
<rect width="942" height="408" fill="white"/>
<path d="M397.76 286.816C397.519 288.877 396.756 290.47 395.471 291.595C394.195 292.71 392.495 293.268 390.371 293.268C388.069 293.268 386.222 292.442 384.83 290.791C383.447 289.141 382.755 286.932 382.755 284.166V282.292C382.755 280.481 383.077 278.888 383.719 277.513C384.37 276.139 385.29 275.086 386.476 274.355C387.663 273.614 389.037 273.244 390.599 273.244C392.669 273.244 394.329 273.824 395.578 274.984C396.827 276.135 397.555 277.732 397.76 279.776H395.177C394.954 278.223 394.467 277.099 393.718 276.403C392.977 275.707 391.937 275.359 390.599 275.359C388.957 275.359 387.668 275.965 386.731 277.179C385.803 278.392 385.339 280.119 385.339 282.359V284.246C385.339 286.361 385.78 288.043 386.664 289.292C387.547 290.542 388.783 291.166 390.371 291.166C391.799 291.166 392.892 290.845 393.651 290.203C394.418 289.551 394.927 288.422 395.177 286.816H397.76ZM410.436 293H407.959V272.441H410.436V293ZM427.274 293.268C425.311 293.268 423.714 292.625 422.482 291.34C421.251 290.046 420.635 288.32 420.635 286.16V285.705C420.635 284.268 420.907 282.988 421.452 281.864C422.005 280.73 422.772 279.847 423.754 279.213C424.744 278.571 425.815 278.25 426.966 278.25C428.849 278.25 430.312 278.87 431.356 280.11C432.401 281.351 432.923 283.126 432.923 285.437V286.468H423.111C423.147 287.896 423.562 289.051 424.356 289.935C425.159 290.809 426.176 291.247 427.408 291.247C428.282 291.247 429.023 291.068 429.63 290.711C430.237 290.354 430.768 289.881 431.223 289.292L432.735 290.47C431.522 292.335 429.701 293.268 427.274 293.268ZM426.966 280.284C425.967 280.284 425.128 280.65 424.45 281.382C423.772 282.105 423.352 283.122 423.192 284.434H430.446V284.246C430.375 282.988 430.036 282.015 429.429 281.328C428.822 280.632 428.001 280.284 426.966 280.284ZM451.595 293C451.452 292.714 451.336 292.206 451.247 291.474C450.096 292.67 448.721 293.268 447.124 293.268C445.696 293.268 444.523 292.866 443.604 292.063C442.694 291.251 442.239 290.225 442.239 288.984C442.239 287.476 442.81 286.307 443.952 285.478C445.103 284.639 446.718 284.219 448.797 284.219H451.207V283.082C451.207 282.216 450.948 281.529 450.43 281.02C449.913 280.503 449.15 280.244 448.141 280.244C447.258 280.244 446.517 280.467 445.919 280.913C445.322 281.359 445.023 281.899 445.023 282.533H442.533C442.533 281.81 442.787 281.114 443.296 280.445C443.813 279.767 444.51 279.231 445.384 278.839C446.267 278.446 447.236 278.25 448.289 278.25C449.957 278.25 451.265 278.669 452.21 279.508C453.156 280.338 453.647 281.484 453.683 282.948V289.614C453.683 290.943 453.852 292.001 454.191 292.786V293H451.595ZM447.485 291.113C448.262 291.113 448.998 290.912 449.694 290.51C450.39 290.109 450.894 289.587 451.207 288.944V285.973H449.266C446.232 285.973 444.715 286.861 444.715 288.636C444.715 289.413 444.974 290.02 445.491 290.457C446.009 290.894 446.673 291.113 447.485 291.113ZM466.76 278.517L466.84 280.338C467.947 278.946 469.392 278.25 471.177 278.25C474.238 278.25 475.781 279.976 475.808 283.43V293H473.332V283.416C473.323 282.372 473.082 281.6 472.609 281.101C472.145 280.601 471.418 280.351 470.427 280.351C469.624 280.351 468.919 280.565 468.313 280.994C467.706 281.422 467.233 281.984 466.894 282.68V293H464.418V278.517H466.76ZM508.99 293C508.847 292.714 508.731 292.206 508.642 291.474C507.491 292.67 506.116 293.268 504.519 293.268C503.091 293.268 501.918 292.866 500.999 292.063C500.089 291.251 499.634 290.225 499.634 288.984C499.634 287.476 500.205 286.307 501.347 285.478C502.498 284.639 504.113 284.219 506.192 284.219H508.602V283.082C508.602 282.216 508.343 281.529 507.825 281.02C507.308 280.503 506.545 280.244 505.536 280.244C504.653 280.244 503.912 280.467 503.315 280.913C502.717 281.359 502.418 281.899 502.418 282.533H499.928C499.928 281.81 500.182 281.114 500.691 280.445C501.209 279.767 501.905 279.231 502.779 278.839C503.663 278.446 504.631 278.25 505.684 278.25C507.352 278.25 508.66 278.669 509.605 279.508C510.551 280.338 511.042 281.484 511.078 282.948V289.614C511.078 290.943 511.247 292.001 511.586 292.786V293H508.99ZM504.881 291.113C505.657 291.113 506.393 290.912 507.089 290.51C507.785 290.109 508.289 289.587 508.602 288.944V285.973H506.661C503.627 285.973 502.11 286.861 502.11 288.636C502.11 289.413 502.369 290.02 502.886 290.457C503.404 290.894 504.069 291.113 504.881 291.113ZM524.503 293H522.027V278.517H524.503V293ZM521.826 274.676C521.826 274.274 521.947 273.935 522.187 273.659C522.437 273.382 522.803 273.244 523.285 273.244C523.767 273.244 524.133 273.382 524.383 273.659C524.632 273.935 524.757 274.274 524.757 274.676C524.757 275.077 524.632 275.412 524.383 275.68C524.133 275.947 523.767 276.081 523.285 276.081C522.803 276.081 522.437 275.947 522.187 275.68C521.947 275.412 521.826 275.077 521.826 274.676ZM542.332 280.739C541.957 280.677 541.551 280.646 541.114 280.646C539.49 280.646 538.388 281.337 537.808 282.72V293H535.332V278.517H537.741L537.781 280.191C538.593 278.897 539.744 278.25 541.234 278.25C541.716 278.25 542.082 278.312 542.332 278.437V280.739ZM549.868 291.702C549.868 291.273 549.993 290.916 550.243 290.631C550.501 290.345 550.885 290.203 551.394 290.203C551.902 290.203 552.286 290.345 552.545 290.631C552.812 290.916 552.946 291.273 552.946 291.702C552.946 292.112 552.812 292.456 552.545 292.732C552.286 293.009 551.902 293.147 551.394 293.147C550.885 293.147 550.501 293.009 550.243 292.732C549.993 292.456 549.868 292.112 549.868 291.702ZM592.272 286.816C592.031 288.877 591.268 290.47 589.983 291.595C588.707 292.71 587.007 293.268 584.883 293.268C582.581 293.268 580.734 292.442 579.342 290.791C577.958 289.141 577.267 286.932 577.267 284.166V282.292C577.267 280.481 577.588 278.888 578.231 277.513C578.882 276.139 579.801 275.086 580.988 274.355C582.175 273.614 583.549 273.244 585.111 273.244C587.181 273.244 588.841 273.824 590.09 274.984C591.339 276.135 592.066 277.732 592.272 279.776H589.688C589.465 278.223 588.979 277.099 588.229 276.403C587.489 275.707 586.449 275.359 585.111 275.359C583.469 275.359 582.179 275.965 581.242 277.179C580.314 278.392 579.85 280.119 579.85 282.359V284.246C579.85 286.361 580.292 288.043 581.175 289.292C582.059 290.542 583.295 291.166 584.883 291.166C586.311 291.166 587.404 290.845 588.162 290.203C588.93 289.551 589.438 288.422 589.688 286.816H592.272ZM604.947 293H602.471V272.441H604.947V293ZM621.786 293.268C619.822 293.268 618.225 292.625 616.994 291.34C615.762 290.046 615.147 288.32 615.147 286.16V285.705C615.147 284.268 615.419 282.988 615.963 281.864C616.516 280.73 617.284 279.847 618.265 279.213C619.256 278.571 620.327 278.25 621.478 278.25C623.361 278.25 624.824 278.87 625.868 280.11C626.912 281.351 627.434 283.126 627.434 285.437V286.468H617.623C617.659 287.896 618.073 289.051 618.868 289.935C619.671 290.809 620.688 291.247 621.919 291.247C622.794 291.247 623.535 291.068 624.141 290.711C624.748 290.354 625.279 289.881 625.734 289.292L627.247 290.47C626.033 292.335 624.213 293.268 621.786 293.268ZM621.478 280.284C620.478 280.284 619.64 280.65 618.961 281.382C618.283 282.105 617.864 283.122 617.703 284.434H624.958V284.246C624.886 282.988 624.547 282.015 623.941 281.328C623.334 280.632 622.513 280.284 621.478 280.284ZM646.106 293C645.963 292.714 645.847 292.206 645.758 291.474C644.607 292.67 643.233 293.268 641.636 293.268C640.208 293.268 639.034 292.866 638.115 292.063C637.205 291.251 636.75 290.225 636.75 288.984C636.75 287.476 637.321 286.307 638.463 285.478C639.615 284.639 641.23 284.219 643.309 284.219H645.718V283.082C645.718 282.216 645.459 281.529 644.942 281.02C644.424 280.503 643.661 280.244 642.653 280.244C641.77 280.244 641.029 280.467 640.431 280.913C639.833 281.359 639.534 281.899 639.534 282.533H637.045C637.045 281.81 637.299 281.114 637.808 280.445C638.325 279.767 639.021 279.231 639.896 278.839C640.779 278.446 641.747 278.25 642.8 278.25C644.469 278.25 645.776 278.669 646.722 279.508C647.668 280.338 648.159 281.484 648.194 282.948V289.614C648.194 290.943 648.364 292.001 648.703 292.786V293H646.106ZM641.997 291.113C642.773 291.113 643.51 290.912 644.206 290.51C644.902 290.109 645.406 289.587 645.718 288.944V285.973H643.777C640.743 285.973 639.226 286.861 639.226 288.636C639.226 289.413 639.485 290.02 640.003 290.457C640.52 290.894 641.185 291.113 641.997 291.113ZM661.272 278.517L661.352 280.338C662.458 278.946 663.904 278.25 665.689 278.25C668.749 278.25 670.293 279.976 670.32 283.43V293H667.844V283.416C667.835 282.372 667.594 281.6 667.121 281.101C666.657 280.601 665.93 280.351 664.939 280.351C664.136 280.351 663.431 280.565 662.824 280.994C662.217 281.422 661.744 281.984 661.405 282.68V293H658.929V278.517H661.272ZM707.383 289.587L710.167 278.517H712.643L708.427 293H706.419L702.899 282.024L699.472 293H697.465L693.262 278.517H695.725L698.576 289.359L701.949 278.517H703.943L707.383 289.587ZM730.967 293C730.825 292.714 730.709 292.206 730.619 291.474C729.468 292.67 728.094 293.268 726.497 293.268C725.069 293.268 723.896 292.866 722.977 292.063C722.066 291.251 721.611 290.225 721.611 288.984C721.611 287.476 722.182 286.307 723.325 285.478C724.476 284.639 726.091 284.219 728.17 284.219H730.579V283.082C730.579 282.216 730.321 281.529 729.803 281.02C729.285 280.503 728.522 280.244 727.514 280.244C726.631 280.244 725.89 280.467 725.292 280.913C724.694 281.359 724.395 281.899 724.395 282.533H721.906C721.906 281.81 722.16 281.114 722.669 280.445C723.186 279.767 723.882 279.231 724.757 278.839C725.64 278.446 726.608 278.25 727.661 278.25C729.33 278.25 730.637 278.669 731.583 279.508C732.529 280.338 733.02 281.484 733.056 282.948V289.614C733.056 290.943 733.225 292.001 733.564 292.786V293H730.967ZM726.858 291.113C727.635 291.113 728.371 290.912 729.067 290.51C729.763 290.109 730.267 289.587 730.579 288.944V285.973H728.638C725.605 285.973 724.088 286.861 724.088 288.636C724.088 289.413 724.346 290.02 724.864 290.457C725.381 290.894 726.046 291.113 726.858 291.113ZM747.15 275.01V278.517H749.854V280.431H747.15V289.413C747.15 289.993 747.27 290.43 747.511 290.725C747.752 291.01 748.163 291.153 748.743 291.153C749.028 291.153 749.421 291.099 749.921 290.992V293C749.269 293.178 748.636 293.268 748.02 293.268C746.914 293.268 746.079 292.933 745.517 292.264C744.955 291.595 744.674 290.644 744.674 289.413V280.431H742.037V278.517H744.674V275.01H747.15ZM765.621 293.268C763.658 293.268 762.061 292.625 760.83 291.34C759.598 290.046 758.982 288.32 758.982 286.16V285.705C758.982 284.268 759.255 282.988 759.799 281.864C760.352 280.73 761.12 279.847 762.101 279.213C763.092 278.571 764.162 278.25 765.314 278.25C767.196 278.25 768.66 278.87 769.704 280.11C770.748 281.351 771.27 283.126 771.27 285.437V286.468H761.459C761.494 287.896 761.909 289.051 762.703 289.935C763.507 290.809 764.524 291.247 765.755 291.247C766.63 291.247 767.37 291.068 767.977 290.711C768.584 290.354 769.115 289.881 769.57 289.292L771.083 290.47C769.869 292.335 768.049 293.268 765.621 293.268ZM765.314 280.284C764.314 280.284 763.475 280.65 762.797 281.382C762.119 282.105 761.7 283.122 761.539 284.434H768.794V284.246C768.722 282.988 768.383 282.015 767.776 281.328C767.17 280.632 766.349 280.284 765.314 280.284ZM788.001 280.739C787.626 280.677 787.22 280.646 786.783 280.646C785.159 280.646 784.057 281.337 783.477 282.72V293H781.001V278.517H783.41L783.45 280.191C784.262 278.897 785.413 278.25 786.904 278.25C787.385 278.25 787.751 278.312 788.001 278.437V280.739ZM795.537 291.702C795.537 291.273 795.662 290.916 795.912 290.631C796.171 290.345 796.554 290.203 797.063 290.203C797.572 290.203 797.955 290.345 798.214 290.631C798.482 290.916 798.616 291.273 798.616 291.702C798.616 292.112 798.482 292.456 798.214 292.732C797.955 293.009 797.572 293.147 797.063 293.147C796.554 293.147 796.171 293.009 795.912 292.732C795.662 292.456 795.537 292.112 795.537 291.702Z" fill="#3F3F3F"/>
<path d="M398.966 133.396C406.531 133.396 412.318 134.774 416.325 137.53C420.383 140.285 422.412 144.593 422.412 150.455C422.412 153.511 421.861 156.141 420.759 158.346C419.707 160.5 418.154 162.278 416.1 163.681C414.046 165.034 411.541 166.036 408.585 166.687C405.629 167.338 402.248 167.664 398.44 167.664H393.706V186H384.237V134.674C386.442 134.173 388.871 133.847 391.527 133.697C394.232 133.497 396.712 133.396 398.966 133.396ZM399.643 141.588C397.238 141.588 395.259 141.663 393.706 141.813V159.548H398.29C402.849 159.548 406.356 158.922 408.811 157.669C411.266 156.367 412.493 153.937 412.493 150.38C412.493 148.677 412.167 147.249 411.516 146.096C410.865 144.944 409.963 144.042 408.811 143.391C407.658 142.74 406.281 142.289 404.678 142.038C403.124 141.738 401.446 141.588 399.643 141.588ZM439.55 159.924C439.55 162.779 439.9 165.384 440.602 167.739C441.303 170.044 442.305 172.022 443.608 173.676C444.96 175.279 446.589 176.531 448.492 177.433C450.396 178.335 452.55 178.786 454.955 178.786C457.31 178.786 459.439 178.335 461.343 177.433C463.246 176.531 464.85 175.279 466.152 173.676C467.505 172.022 468.532 170.044 469.233 167.739C469.935 165.384 470.285 162.779 470.285 159.924C470.285 157.068 469.935 154.488 469.233 152.183C468.532 149.829 467.505 147.85 466.152 146.247C464.85 144.593 463.246 143.316 461.343 142.414C459.439 141.512 457.31 141.062 454.955 141.062C452.55 141.062 450.396 141.512 448.492 142.414C446.589 143.316 444.96 144.593 443.608 146.247C442.305 147.9 441.303 149.879 440.602 152.183C439.9 154.488 439.55 157.068 439.55 159.924ZM480.205 159.924C480.205 164.382 479.528 168.315 478.176 171.722C476.873 175.129 475.07 177.984 472.765 180.289C470.511 182.543 467.855 184.247 464.799 185.399C461.743 186.551 458.487 187.127 455.03 187.127C451.573 187.127 448.292 186.551 445.186 185.399C442.13 184.247 439.45 182.543 437.145 180.289C434.891 177.984 433.087 175.129 431.734 171.722C430.382 168.315 429.705 164.382 429.705 159.924C429.705 155.465 430.382 151.557 431.734 148.201C433.087 144.794 434.916 141.938 437.22 139.634C439.575 137.329 442.28 135.601 445.336 134.448C448.392 133.296 451.623 132.72 455.03 132.72C458.437 132.72 461.668 133.296 464.724 134.448C467.78 135.601 470.436 137.329 472.69 139.634C474.995 141.938 476.823 144.794 478.176 148.201C479.528 151.557 480.205 155.465 480.205 159.924ZM524.259 177.809V186H491.344V133.922H500.812V177.809H524.259ZM565.153 177.809V186H532.238V133.922H541.706V177.809H565.153ZM592.022 187.127C588.465 187.127 585.409 186.626 582.854 185.624C580.299 184.572 578.17 183.119 576.466 181.266C574.813 179.412 573.586 177.233 572.784 174.728C571.983 172.223 571.582 169.467 571.582 166.462V133.922H581.126V165.56C581.126 167.914 581.376 169.943 581.877 171.647C582.428 173.3 583.18 174.653 584.132 175.705C585.133 176.757 586.286 177.533 587.588 178.034C588.941 178.535 590.444 178.786 592.097 178.786C593.75 178.786 595.253 178.535 596.606 178.034C597.959 177.533 599.111 176.757 600.063 175.705C601.065 174.653 601.816 173.3 602.317 171.647C602.868 169.943 603.144 167.914 603.144 165.56V133.922H612.688V166.462C612.688 169.467 612.262 172.223 611.41 174.728C610.609 177.233 609.356 179.412 607.653 181.266C606 183.119 603.87 184.572 601.265 185.624C598.66 186.626 595.579 187.127 592.022 187.127ZM661.844 133.922V142.114H645.837V186H636.294V142.114H620.287V133.922H661.844ZM669.817 133.922H679.286V186H669.817V133.922ZM700.252 159.924C700.252 162.779 700.602 165.384 701.304 167.739C702.005 170.044 703.007 172.022 704.31 173.676C705.662 175.279 707.29 176.531 709.194 177.433C711.098 178.335 713.252 178.786 715.657 178.786C718.012 178.786 720.141 178.335 722.044 177.433C723.948 176.531 725.551 175.279 726.854 173.676C728.207 172.022 729.234 170.044 729.935 167.739C730.636 165.384 730.987 162.779 730.987 159.924C730.987 157.068 730.636 154.488 729.935 152.183C729.234 149.829 728.207 147.85 726.854 146.247C725.551 144.593 723.948 143.316 722.044 142.414C720.141 141.512 718.012 141.062 715.657 141.062C713.252 141.062 711.098 141.512 709.194 142.414C707.29 143.316 705.662 144.593 704.31 146.247C703.007 147.9 702.005 149.879 701.304 152.183C700.602 154.488 700.252 157.068 700.252 159.924ZM740.907 159.924C740.907 164.382 740.23 168.315 738.878 171.722C737.575 175.129 735.772 177.984 733.467 180.289C731.213 182.543 728.557 184.247 725.501 185.399C722.445 186.551 719.189 187.127 715.732 187.127C712.275 187.127 708.994 186.551 705.888 185.399C702.832 184.247 700.151 182.543 697.847 180.289C695.592 177.984 693.789 175.129 692.436 171.722C691.084 168.315 690.407 164.382 690.407 159.924C690.407 155.465 691.084 151.557 692.436 148.201C693.789 144.794 695.617 141.938 697.922 139.634C700.277 137.329 702.982 135.601 706.038 134.448C709.094 133.296 712.325 132.72 715.732 132.72C719.139 132.72 722.37 133.296 725.426 134.448C728.482 135.601 731.137 137.329 733.392 139.634C735.696 141.938 737.525 144.794 738.878 148.201C740.23 151.557 740.907 155.465 740.907 159.924ZM787.14 186C785.436 183.144 783.533 180.088 781.428 176.832C779.324 173.525 777.145 170.219 774.891 166.912C772.636 163.556 770.332 160.324 767.977 157.218C765.672 154.062 763.468 151.232 761.364 148.727V186H752.046V133.922H759.786C761.79 136.027 763.944 138.532 766.249 141.437C768.553 144.293 770.858 147.274 773.162 150.38C775.517 153.486 777.771 156.617 779.925 159.773C782.13 162.879 784.084 165.785 785.787 168.491V133.922H795.18V186H787.14ZM398.966 203.396C406.531 203.396 412.318 204.774 416.325 207.53C420.383 210.285 422.412 214.593 422.412 220.455C422.412 223.511 421.861 226.141 420.759 228.346C419.707 230.5 418.154 232.278 416.1 233.681C414.046 235.034 411.541 236.036 408.585 236.687C405.629 237.338 402.248 237.664 398.44 237.664H393.706V256H384.237V204.674C386.442 204.173 388.871 203.847 391.527 203.697C394.232 203.497 396.712 203.396 398.966 203.396ZM399.643 211.588C397.238 211.588 395.259 211.663 393.706 211.813V229.548H398.29C402.849 229.548 406.356 228.922 408.811 227.669C411.266 226.367 412.493 223.937 412.493 220.38C412.493 218.677 412.167 217.249 411.516 216.096C410.865 214.944 409.963 214.042 408.811 213.391C407.658 212.74 406.281 212.289 404.678 212.038C403.124 211.738 401.446 211.588 399.643 211.588ZM446.163 203.396C453.678 203.396 459.414 204.774 463.372 207.53C467.38 210.285 469.383 214.493 469.383 220.154C469.383 227.218 465.902 232.003 458.938 234.508C459.89 235.66 460.967 237.063 462.169 238.716C463.372 240.369 464.599 242.173 465.852 244.127C467.104 246.03 468.306 248.009 469.459 250.063C470.611 252.067 471.638 254.046 472.54 256H461.944C460.992 254.196 459.965 252.393 458.863 250.589C457.761 248.736 456.633 246.957 455.481 245.254C454.379 243.5 453.277 241.872 452.175 240.369C451.072 238.816 450.045 237.438 449.094 236.236C448.392 236.286 447.791 236.311 447.29 236.311C446.789 236.311 446.313 236.311 445.862 236.311H441.278V256H431.809V204.674C434.114 204.173 436.569 203.847 439.174 203.697C441.779 203.497 444.109 203.396 446.163 203.396ZM446.839 211.588C444.835 211.588 442.981 211.663 441.278 211.813V228.646H445.411C447.716 228.646 449.745 228.521 451.498 228.27C453.252 228.02 454.705 227.569 455.857 226.918C457.059 226.266 457.961 225.39 458.562 224.288C459.163 223.185 459.464 221.783 459.464 220.079C459.464 218.476 459.163 217.123 458.562 216.021C457.961 214.919 457.084 214.042 455.932 213.391C454.83 212.74 453.502 212.289 451.949 212.038C450.396 211.738 448.693 211.588 446.839 211.588ZM487.709 229.924C487.709 232.779 488.06 235.384 488.761 237.739C489.462 240.044 490.464 242.022 491.767 243.676C493.12 245.279 494.748 246.531 496.652 247.433C498.555 248.335 500.71 248.786 503.114 248.786C505.469 248.786 507.598 248.335 509.502 247.433C511.406 246.531 513.009 245.279 514.311 243.676C515.664 242.022 516.691 240.044 517.392 237.739C518.094 235.384 518.445 232.779 518.445 229.924C518.445 227.068 518.094 224.488 517.392 222.183C516.691 219.829 515.664 217.85 514.311 216.247C513.009 214.593 511.406 213.316 509.502 212.414C507.598 211.512 505.469 211.062 503.114 211.062C500.71 211.062 498.555 211.512 496.652 212.414C494.748 213.316 493.12 214.593 491.767 216.247C490.464 217.9 489.462 219.879 488.761 222.183C488.06 224.488 487.709 227.068 487.709 229.924ZM528.364 229.924C528.364 234.382 527.688 238.315 526.335 241.722C525.032 245.129 523.229 247.984 520.924 250.289C518.67 252.543 516.015 254.247 512.959 255.399C509.903 256.551 506.646 257.127 503.189 257.127C499.733 257.127 496.451 256.551 493.345 255.399C490.289 254.247 487.609 252.543 485.304 250.289C483.05 247.984 481.246 245.129 479.894 241.722C478.541 238.315 477.865 234.382 477.865 229.924C477.865 225.465 478.541 221.557 479.894 218.201C481.246 214.794 483.075 211.938 485.379 209.634C487.734 207.329 490.439 205.601 493.495 204.448C496.551 203.296 499.783 202.72 503.189 202.72C506.596 202.72 509.828 203.296 512.884 204.448C515.94 205.601 518.595 207.329 520.849 209.634C523.154 211.938 524.982 214.794 526.335 218.201C527.688 221.557 528.364 225.465 528.364 229.924ZM555.209 256.601C552.453 256.601 549.673 256.501 546.867 256.301C544.062 256.15 541.607 255.8 539.503 255.249V204.674C540.605 204.474 541.782 204.298 543.035 204.148C544.287 203.947 545.565 203.797 546.867 203.697C548.17 203.597 549.448 203.522 550.7 203.472C552.003 203.421 553.23 203.396 554.382 203.396C557.538 203.396 560.469 203.647 563.175 204.148C565.88 204.599 568.21 205.375 570.163 206.477C572.167 207.58 573.72 209.033 574.823 210.836C575.925 212.64 576.476 214.869 576.476 217.524C576.476 219.979 575.875 222.083 574.672 223.837C573.52 225.59 571.892 226.993 569.788 228.045C572.944 229.097 575.273 230.65 576.776 232.704C578.279 234.758 579.031 237.363 579.031 240.52C579.031 245.88 577.077 249.913 573.169 252.618C569.262 255.274 563.275 256.601 555.209 256.601ZM548.821 232.554V248.41C549.873 248.51 551.001 248.585 552.203 248.635C553.405 248.686 554.508 248.711 555.51 248.711C557.463 248.711 559.267 248.585 560.92 248.335C562.624 248.084 564.076 247.659 565.279 247.057C566.531 246.406 567.508 245.554 568.21 244.502C568.961 243.45 569.337 242.098 569.337 240.444C569.337 237.489 568.26 235.435 566.105 234.282C563.951 233.13 560.97 232.554 557.163 232.554H548.821ZM548.821 225.114H555.51C559.117 225.114 561.947 224.613 564.001 223.611C566.055 222.559 567.082 220.705 567.082 218.05C567.082 215.545 566.005 213.767 563.851 212.715C561.747 211.663 558.991 211.137 555.585 211.137C554.132 211.137 552.829 211.162 551.677 211.212C550.575 211.262 549.623 211.337 548.821 211.437V225.114ZM589.644 256V203.922H623.085V211.963H599.112V224.814H620.454V232.704H599.112V247.959H624.888V256H589.644Z" fill="#3F3F3F"/>
<mask id="mask0" mask-type="alpha" maskUnits="userSpaceOnUse" x="116" y="123" width="232" height="138">
<path fill-rule="evenodd" clip-rule="evenodd" d="M302.848 180.592L303.013 176.599C303.04 175.936 303.054 175.269 303.054 174.599C303.054 148.304 281.738 126.988 255.444 126.988C238.94 126.988 224.395 135.382 215.848 148.153L213.534 151.609L210.178 149.153C205.056 145.404 198.745 143.193 191.905 143.193C174.796 143.193 160.926 157.063 160.926 174.172C160.926 174.939 160.954 175.698 161.008 176.449L161.313 180.65L157.102 180.725C136.543 181.092 119.988 197.874 119.988 218.521C119.988 239.399 134.721 260.597 155.598 260.597L317.695 251.481C334.326 239.801 342.568 237.522 343.139 218.521C343.139 198.148 327.02 181.537 306.842 180.748L302.848 180.592ZM307.183 176.771C329.406 177.737 347.127 196.059 347.127 218.521C347.127 241.602 328.417 260.312 305.337 260.312H157.791C134.71 260.312 116 241.602 116 218.521C116 197.044 132.202 179.35 153.05 176.997C154.36 176.849 155.687 176.761 157.03 176.738C156.969 175.89 156.938 175.035 156.938 174.172C156.938 173.737 156.946 173.303 156.961 172.872C157.645 154.162 173.029 139.205 191.905 139.205C198.568 139.205 204.795 141.068 210.095 144.302C210.931 144.812 211.745 145.357 212.533 145.934C213.274 144.828 214.056 143.751 214.878 142.708C224.326 130.706 238.985 123 255.444 123C283.941 123 307.043 146.101 307.043 174.599C307.043 175.247 307.031 175.893 307.007 176.535C307.004 176.611 307.001 176.687 306.998 176.763C307.06 176.766 307.121 176.768 307.183 176.771Z" fill="#0959A3"/>
</mask>
<g mask="url(#mask0)">
<path d="M156.168 241.51L197.475 224.418L263.568 253.76L335.357 244.929L365.554 224.418L341.34 152.628L259.009 116.448L189.784 130.407L117.139 165.448L109.448 244.929L138.221 258.888L156.168 241.51Z" fill="#3F3F3F"/>
</g>
<path d="M271.769 222.579C205.57 183.863 158.306 229.291 140.5 256.609C214.944 205.548 213.474 263.03 275.533 274.963C308.39 281.282 344.758 256.324 347.037 221.569C337.066 247.493 318.264 249.772 271.769 222.579Z" fill="#3F3F3F"/>
<path d="M229.867 264.523C194.626 233.248 171.805 241.469 147.612 257.692C186.481 234.937 210.797 273.617 233.613 287.467C260.701 303.91 300.599 293.648 313.625 273.617C301.695 284.735 260.04 291.302 229.867 264.523Z" fill="#B7B7B7"/>
</svg>
