<svg width="706" height="633" viewBox="0 0 706 633" fill="none" xmlns="http://www.w3.org/2000/svg">
<rect width="706" height="633" fill="white"/>
<path d="M139.268 454.405C144.243 454.405 148.049 455.311 150.684 457.123C153.353 458.935 154.688 461.769 154.688 465.624C154.688 467.634 154.325 469.363 153.6 470.813C152.908 472.23 151.887 473.399 150.536 474.322C149.185 475.211 147.538 475.87 145.594 476.299C143.65 476.727 141.426 476.941 138.922 476.941H135.809V489H129.581V455.245C131.031 454.916 132.629 454.702 134.375 454.603C136.155 454.471 137.785 454.405 139.268 454.405ZM139.713 459.792C138.131 459.792 136.83 459.841 135.809 459.94V471.604H138.823C141.821 471.604 144.128 471.192 145.742 470.368C147.357 469.512 148.164 467.914 148.164 465.574C148.164 464.454 147.95 463.515 147.521 462.757C147.093 461.999 146.5 461.406 145.742 460.978C144.984 460.55 144.078 460.253 143.024 460.089C142.003 459.891 140.899 459.792 139.713 459.792ZM165.958 471.851C165.958 473.729 166.189 475.442 166.65 476.991C167.111 478.506 167.77 479.808 168.627 480.895C169.516 481.949 170.587 482.773 171.839 483.366C173.091 483.959 174.508 484.256 176.089 484.256C177.638 484.256 179.038 483.959 180.29 483.366C181.542 482.773 182.596 481.949 183.453 480.895C184.343 479.808 185.018 478.506 185.479 476.991C185.941 475.442 186.171 473.729 186.171 471.851C186.171 469.973 185.941 468.276 185.479 466.76C185.018 465.212 184.343 463.91 183.453 462.856C182.596 461.769 181.542 460.929 180.29 460.336C179.038 459.743 177.638 459.446 176.089 459.446C174.508 459.446 173.091 459.743 171.839 460.336C170.587 460.929 169.516 461.769 168.627 462.856C167.77 463.943 167.111 465.245 166.65 466.76C166.189 468.276 165.958 469.973 165.958 471.851ZM192.695 471.851C192.695 474.783 192.25 477.37 191.36 479.61C190.504 481.85 189.318 483.728 187.802 485.244C186.319 486.727 184.573 487.847 182.563 488.605C180.554 489.362 178.412 489.741 176.139 489.741C173.865 489.741 171.707 489.362 169.664 488.605C167.655 487.847 165.892 486.727 164.376 485.244C162.894 483.728 161.708 481.85 160.818 479.61C159.928 477.37 159.484 474.783 159.484 471.851C159.484 468.918 159.928 466.349 160.818 464.141C161.708 461.901 162.91 460.023 164.426 458.507C165.974 456.991 167.754 455.855 169.763 455.097C171.773 454.339 173.898 453.96 176.139 453.96C178.379 453.96 180.504 454.339 182.514 455.097C184.524 455.855 186.27 456.991 187.753 458.507C189.268 460.023 190.471 461.901 191.36 464.141C192.25 466.349 192.695 468.918 192.695 471.851ZM221.667 483.613V489H200.02V454.751H206.247V483.613H221.667ZM248.561 483.613V489H226.914V454.751H233.142V483.613H248.561ZM266.232 489.741C263.893 489.741 261.883 489.412 260.202 488.753C258.522 488.061 257.122 487.106 256.002 485.886C254.914 484.667 254.107 483.234 253.58 481.587C253.053 479.939 252.789 478.127 252.789 476.15V454.751H259.066V475.557C259.066 477.106 259.23 478.44 259.56 479.561C259.922 480.648 260.417 481.537 261.043 482.229C261.702 482.921 262.459 483.432 263.316 483.761C264.206 484.091 265.194 484.256 266.281 484.256C267.369 484.256 268.357 484.091 269.247 483.761C270.136 483.432 270.894 482.921 271.52 482.229C272.179 481.537 272.673 480.648 273.003 479.561C273.365 478.44 273.546 477.106 273.546 475.557V454.751H279.823V476.15C279.823 478.127 279.543 479.939 278.983 481.587C278.455 483.234 277.632 484.667 276.511 485.886C275.424 487.106 274.024 488.061 272.311 488.753C270.597 489.412 268.571 489.741 266.232 489.741ZM312.15 454.751V460.138H301.624V489H295.347V460.138H284.82V454.751H312.15ZM317.394 454.751H323.621V489H317.394V454.751ZM337.409 471.851C337.409 473.729 337.64 475.442 338.101 476.991C338.562 478.506 339.221 479.808 340.078 480.895C340.968 481.949 342.038 482.773 343.29 483.366C344.542 483.959 345.959 484.256 347.541 484.256C349.089 484.256 350.489 483.959 351.741 483.366C352.994 482.773 354.048 481.949 354.904 480.895C355.794 479.808 356.469 478.506 356.931 476.991C357.392 475.442 357.623 473.729 357.623 471.851C357.623 469.973 357.392 468.276 356.931 466.76C356.469 465.212 355.794 463.91 354.904 462.856C354.048 461.769 352.994 460.929 351.741 460.336C350.489 459.743 349.089 459.446 347.541 459.446C345.959 459.446 344.542 459.743 343.29 460.336C342.038 460.929 340.968 461.769 340.078 462.856C339.221 463.943 338.562 465.245 338.101 466.76C337.64 468.276 337.409 469.973 337.409 471.851ZM364.146 471.851C364.146 474.783 363.701 477.37 362.812 479.61C361.955 481.85 360.769 483.728 359.254 485.244C357.771 486.727 356.025 487.847 354.015 488.605C352.005 489.362 349.863 489.741 347.59 489.741C345.317 489.741 343.159 489.362 341.116 488.605C339.106 487.847 337.343 486.727 335.828 485.244C334.345 483.728 333.159 481.85 332.269 479.61C331.38 477.37 330.935 474.783 330.935 471.851C330.935 468.918 331.38 466.349 332.269 464.141C333.159 461.901 334.362 460.023 335.877 458.507C337.426 456.991 339.205 455.855 341.215 455.097C343.225 454.339 345.35 453.96 347.59 453.96C349.831 453.96 351.956 454.339 353.965 455.097C355.975 455.855 357.721 456.991 359.204 458.507C360.72 460.023 361.922 461.901 362.812 464.141C363.701 466.349 364.146 468.918 364.146 471.851ZM394.552 489C393.431 487.122 392.179 485.112 390.796 482.971C389.412 480.796 387.979 478.622 386.496 476.447C385.013 474.239 383.498 472.114 381.949 470.072C380.434 467.996 378.984 466.134 377.6 464.487V489H371.472V454.751H376.562C377.88 456.135 379.297 457.782 380.812 459.693C382.328 461.571 383.844 463.532 385.359 465.574C386.908 467.617 388.39 469.676 389.807 471.752C391.257 473.795 392.542 475.706 393.662 477.485V454.751H399.84V489H394.552ZM430.265 454.405C435.24 454.405 439.046 455.311 441.681 457.123C444.35 458.935 445.685 461.769 445.685 465.624C445.685 467.634 445.322 469.363 444.597 470.813C443.905 472.23 442.884 473.399 441.533 474.322C440.182 475.211 438.535 475.87 436.591 476.299C434.647 476.727 432.423 476.941 429.919 476.941H426.806V489H420.578V455.245C422.028 454.916 423.626 454.702 425.372 454.603C427.152 454.471 428.782 454.405 430.265 454.405ZM430.71 459.792C429.128 459.792 427.827 459.841 426.806 459.94V471.604H429.82C432.818 471.604 435.125 471.192 436.739 470.368C438.354 469.512 439.161 467.914 439.161 465.574C439.161 464.454 438.947 463.515 438.518 462.757C438.09 461.999 437.497 461.406 436.739 460.978C435.981 460.55 435.075 460.253 434.021 460.089C433 459.891 431.896 459.792 430.71 459.792ZM461.304 454.405C466.246 454.405 470.019 455.311 472.621 457.123C475.257 458.935 476.575 461.703 476.575 465.426C476.575 470.072 474.285 473.218 469.706 474.866C470.332 475.623 471.04 476.546 471.831 477.633C472.621 478.72 473.429 479.906 474.252 481.191C475.076 482.443 475.867 483.745 476.625 485.096C477.382 486.414 478.058 487.715 478.651 489H471.682C471.056 487.814 470.381 486.628 469.656 485.442C468.931 484.223 468.19 483.053 467.432 481.933C466.707 480.78 465.983 479.709 465.258 478.72C464.533 477.699 463.857 476.793 463.231 476.002C462.77 476.035 462.375 476.052 462.045 476.052C461.716 476.052 461.403 476.052 461.106 476.052H458.092V489H451.864V455.245C453.38 454.916 454.994 454.702 456.708 454.603C458.421 454.471 459.953 454.405 461.304 454.405ZM461.749 459.792C460.431 459.792 459.212 459.841 458.092 459.94V471.011H460.81C462.325 471.011 463.66 470.928 464.813 470.764C465.966 470.599 466.922 470.302 467.679 469.874C468.47 469.446 469.063 468.869 469.458 468.144C469.854 467.419 470.052 466.497 470.052 465.377C470.052 464.322 469.854 463.433 469.458 462.708C469.063 461.983 468.487 461.406 467.729 460.978C467.004 460.55 466.131 460.253 465.109 460.089C464.088 459.891 462.968 459.792 461.749 459.792ZM488.627 471.851C488.627 473.729 488.858 475.442 489.319 476.991C489.78 478.506 490.439 479.808 491.296 480.895C492.185 481.949 493.256 482.773 494.508 483.366C495.76 483.959 497.177 484.256 498.758 484.256C500.307 484.256 501.707 483.959 502.959 483.366C504.211 482.773 505.266 481.949 506.122 480.895C507.012 479.808 507.687 478.506 508.148 476.991C508.61 475.442 508.84 473.729 508.84 471.851C508.84 469.973 508.61 468.276 508.148 466.76C507.687 465.212 507.012 463.91 506.122 462.856C505.266 461.769 504.211 460.929 502.959 460.336C501.707 459.743 500.307 459.446 498.758 459.446C497.177 459.446 495.76 459.743 494.508 460.336C493.256 460.929 492.185 461.769 491.296 462.856C490.439 463.943 489.78 465.245 489.319 466.76C488.858 468.276 488.627 469.973 488.627 471.851ZM515.364 471.851C515.364 474.783 514.919 477.37 514.03 479.61C513.173 481.85 511.987 483.728 510.471 485.244C508.989 486.727 507.242 487.847 505.233 488.605C503.223 489.362 501.081 489.741 498.808 489.741C496.534 489.741 494.376 489.362 492.334 488.605C490.324 487.847 488.561 486.727 487.046 485.244C485.563 483.728 484.377 481.85 483.487 479.61C482.598 477.37 482.153 474.783 482.153 471.851C482.153 468.918 482.598 466.349 483.487 464.141C484.377 461.901 485.579 460.023 487.095 458.507C488.643 456.991 490.423 455.855 492.432 455.097C494.442 454.339 496.567 453.96 498.808 453.96C501.048 453.96 503.173 454.339 505.183 455.097C507.193 455.855 508.939 456.991 510.422 458.507C511.937 460.023 513.14 461.901 514.03 464.141C514.919 466.349 515.364 468.918 515.364 471.851ZM533.018 489.395C531.206 489.395 529.378 489.329 527.533 489.198C525.688 489.099 524.073 488.868 522.689 488.506V455.245C523.414 455.113 524.189 454.998 525.012 454.899C525.836 454.767 526.676 454.669 527.533 454.603C528.389 454.537 529.23 454.487 530.053 454.454C530.91 454.422 531.717 454.405 532.475 454.405C534.551 454.405 536.478 454.57 538.257 454.899C540.036 455.196 541.568 455.707 542.853 456.431C544.171 457.156 545.193 458.112 545.917 459.298C546.642 460.484 547.005 461.95 547.005 463.696C547.005 465.311 546.609 466.695 545.819 467.848C545.061 469.001 543.99 469.923 542.606 470.615C544.682 471.307 546.214 472.329 547.202 473.679C548.191 475.03 548.685 476.744 548.685 478.819C548.685 482.345 547.4 484.997 544.83 486.776C542.26 488.522 538.323 489.395 533.018 489.395ZM528.818 473.581V484.008C529.51 484.074 530.251 484.124 531.042 484.157C531.832 484.19 532.557 484.206 533.216 484.206C534.501 484.206 535.687 484.124 536.775 483.959C537.895 483.794 538.85 483.514 539.641 483.119C540.465 482.691 541.107 482.13 541.568 481.439C542.063 480.747 542.31 479.857 542.31 478.77C542.31 476.826 541.601 475.475 540.185 474.717C538.768 473.959 536.807 473.581 534.303 473.581H528.818ZM528.818 468.688H533.216C535.588 468.688 537.45 468.358 538.801 467.699C540.152 467.008 540.827 465.788 540.827 464.042C540.827 462.395 540.119 461.225 538.702 460.533C537.318 459.841 535.506 459.495 533.266 459.495C532.31 459.495 531.453 459.512 530.696 459.545C529.971 459.578 529.345 459.627 528.818 459.693V468.688ZM555.665 489V454.751H577.657V460.039H561.892V468.49H575.927V473.679H561.892V483.712H578.843V489H555.665Z" fill="#183D5F"/>
<mask id="mask0" mask-type="alpha" maskUnits="userSpaceOnUse" x="148" y="114" width="406" height="242">
<path fill-rule="evenodd" clip-rule="evenodd" d="M475.943 215.082L476.232 208.073C476.28 206.909 476.304 205.739 476.304 204.562C476.304 158.412 438.892 121 392.742 121C363.776 121 338.248 135.733 323.246 158.146L319.186 164.212L313.295 159.901C304.305 153.323 293.228 149.441 281.224 149.441C251.195 149.441 226.851 173.784 226.851 203.814C226.851 205.159 226.9 206.492 226.995 207.81L227.53 215.183L220.139 215.315C184.055 215.959 155 245.413 155 281.652C155 318.295 180.857 355.5 217.5 355.5L502 339.5C531.189 319 545.657 315 546.658 281.652C546.658 245.894 518.368 216.74 482.953 215.356L475.943 215.082ZM483.55 208.375C522.556 210.07 553.658 242.229 553.658 281.652C553.658 322.161 520.819 355 480.311 355H221.348C180.839 355 148 322.161 148 281.652C148 243.956 176.437 212.902 213.028 208.771C215.326 208.512 217.656 208.358 220.014 208.316C219.906 206.829 219.851 205.328 219.851 203.814C219.851 203.05 219.865 202.289 219.893 201.532C221.093 168.694 248.092 142.441 281.224 142.441C292.917 142.441 303.847 145.711 313.149 151.388C314.617 152.284 316.045 153.24 317.429 154.252C318.728 152.31 320.101 150.421 321.543 148.589C338.126 127.526 363.854 114 392.742 114C442.758 114 483.304 154.546 483.304 204.562C483.304 205.7 483.283 206.833 483.242 207.961C483.237 208.095 483.232 208.228 483.226 208.361C483.334 208.365 483.442 208.37 483.55 208.375Z" fill="#0959A3"/>
</mask>
<g mask="url(#mask0)">
<path d="M218.5 322L291 292L407 343.5L533 328L586 292L543.5 166L399 102.5L277.5 127L150 188.5L136.5 328L187 352.5L218.5 322Z" fill="#183D5F"/>
</g>
<path d="M421.395 288.774C305.206 220.822 222.253 300.555 191 348.5C321.661 258.883 319.08 359.769 428.001 380.715C485.669 391.804 549.5 348 553.5 287C536 332.5 503 336.5 421.395 288.774Z" fill="#183D5F"/>
<path d="M347.851 362.392C286 307.5 245.945 321.93 203.484 350.403C271.703 310.465 314.382 378.353 354.427 402.662C401.969 431.521 471.996 413.509 494.858 378.353C473.918 397.867 400.81 409.392 347.851 362.392Z" fill="#007FA0"/>
</svg>
