<svg width="48" height="48" viewBox="0 0 48 48" fill="none" xmlns="http://www.w3.org/2000/svg">
<path d="M0 24C0 10.7452 10.7452 0 24 0C37.2548 0 48 10.7452 48 24C48 37.2548 37.2548 48 24 48C10.7452 48 0 37.2548 0 24Z" fill="#CB7749"/>
<path d="M34.5 34H14.5C13.1193 34 12 32.8807 12 31.5V16.3913C12.0583 15.0532 13.1607 13.9987 14.5 14H34.5C35.8807 14 37 15.1193 37 16.5V31.5C37 32.8807 35.8807 34 34.5 34ZM14.5 18.835V31.5H34.5V18.835L24.5 25.5L14.5 18.835ZM15.5 16.5L24.5 22.5L33.5 16.5H15.5Z" fill="white"/>
</svg>
