<svg width="48" height="48" viewBox="0 0 48 48" fill="none" xmlns="http://www.w3.org/2000/svg">
<path d="M24.0002 0C10.747 0 0 11.0169 0 24.6076C0 35.4799 6.87679 44.7039 16.4128 47.9577C17.6123 48.1855 18.0526 47.4239 18.0526 46.7739C18.0526 46.1872 18.0304 44.2487 18.02 42.1925C11.3431 43.6811 9.93424 39.2891 9.93424 39.2891C8.84249 36.4448 7.26945 35.6885 7.26945 35.6885C5.09192 34.1613 7.43359 34.1926 7.43359 34.1926C9.84363 34.3662 11.1126 36.7285 11.1126 36.7285C13.2532 40.4904 16.7272 39.4028 18.0967 38.7741C18.3121 37.1836 18.9341 36.0981 19.6205 35.4836C14.2897 34.8613 8.6859 32.7513 8.6859 23.3224C8.6859 20.6358 9.62345 18.4406 11.1587 16.7174C10.9095 16.0976 10.088 13.5947 11.3912 10.2052C11.3912 10.2052 13.4066 9.54387 17.993 12.7276C19.9074 12.1824 21.9606 11.9089 24.0002 11.8996C26.0398 11.9089 28.0946 12.1824 30.0126 12.7276C34.5934 9.54387 36.606 10.2052 36.606 10.2052C37.9123 13.5947 37.0905 16.0976 36.8413 16.7174C38.3801 18.4406 39.3113 20.6358 39.3113 23.3224C39.3113 32.7738 33.6968 34.8548 28.3525 35.464C29.2133 36.2276 29.9804 37.7252 29.9804 40.021C29.9804 43.3135 29.9526 45.9634 29.9526 46.7739C29.9526 47.4288 30.3846 48.1961 31.6011 47.9544C41.132 44.697 48 35.4762 48 24.6076C48 11.0169 37.2546 0 24.0002 0Z" fill="white"/>
<path d="M9.16109 35.1622C9.10833 35.2832 8.92109 35.3195 8.75051 35.2364C8.57676 35.1569 8.47918 34.9919 8.53551 34.8705C8.58708 34.7458 8.77471 34.7111 8.94807 34.7946C9.12222 34.8741 9.22139 35.0407 9.16109 35.1622Z" fill="#161514"/>
<path d="M10.1313 36.2625C10.017 36.3702 9.7937 36.3202 9.64217 36.1499C9.48547 35.9801 9.45612 35.7529 9.57195 35.6436C9.68977 35.5359 9.90637 35.5863 10.0635 35.7561C10.2202 35.928 10.2507 36.1536 10.1313 36.2625Z" fill="#161514"/>
<path d="M11.0755 37.6664C10.9287 37.7701 10.6887 37.6729 10.5404 37.4562C10.3936 37.2396 10.3936 36.9797 10.5435 36.8756C10.6923 36.7715 10.9287 36.8651 11.0791 37.0802C11.2254 37.3005 11.2254 37.5603 11.0755 37.6664Z" fill="#161514"/>
<path d="M12.3698 39.0219C12.2385 39.1692 11.9588 39.1297 11.7541 38.9287C11.5446 38.7322 11.4863 38.4534 11.618 38.3062C11.7509 38.1585 12.0322 38.2001 12.2385 38.3994C12.4463 38.5955 12.5098 38.8763 12.3698 39.0219Z" fill="#161514"/>
<path d="M14.1549 39.8095C14.097 40.0004 13.8276 40.0871 13.5563 40.006C13.2853 39.9225 13.108 39.699 13.1628 39.5061C13.2191 39.314 13.4896 39.2237 13.763 39.3104C14.0335 39.3935 14.2112 39.6154 14.1549 39.8095Z" fill="#161514"/>
<path d="M16.1154 39.9552C16.1221 40.1561 15.892 40.3228 15.6072 40.3264C15.3208 40.3329 15.0891 40.1703 15.0859 39.9726C15.0859 39.7696 15.3109 39.6046 15.5973 39.5998C15.8821 39.5941 16.1154 39.7555 16.1154 39.9552Z" fill="#161514"/>
<path d="M17.9398 39.6389C17.9739 39.835 17.776 40.0364 17.4931 40.09C17.2151 40.1417 16.9576 40.0206 16.9223 39.8262C16.8878 39.6252 17.0893 39.4239 17.367 39.3718C17.6502 39.3218 17.9037 39.4396 17.9398 39.6389Z" fill="#161514"/>
</svg>
