<svg width="2500" height="735" viewBox="0 0 2500 735" fill="none" xmlns="http://www.w3.org/2000/svg">
<g clip-path="url(#clip0)">
<path d="M860.782 537.238L867.022 635.691H868.585C871.818 625.631 875.399 615.13 880.409 605.283L914.358 537.238H969.496L977.82 635.691H979.41C982.282 626.045 985.516 615.972 989.925 606.579L1023.05 537.238H1097.88L996.685 702.2H933.944L928.413 612.498H926.048C923.643 621.049 921.532 629.345 917.618 637.442L885.366 702.2H824.175L786.204 537.238H860.782Z" fill="white"/>
<path d="M1092.64 537.238H1161.95L1151.41 592.804H1195.52L1206.07 537.238H1275.38L1244.04 702.2H1174.73L1185.6 644.884H1141.47L1130.6 702.2H1061.28L1092.64 537.238Z" fill="white"/>
<path d="M1478.4 620.152C1468.34 673.1 1413.19 704.818 1352.84 704.818C1292.43 704.818 1249.35 673.087 1259.42 620.152C1269.28 568.3 1325.05 534.605 1385.17 534.605C1445.29 534.605 1488.23 568.3 1478.4 620.152V620.152ZM1331.73 621.021C1328.13 639.832 1340.92 652.752 1362.71 652.752C1384.51 652.752 1402.19 639.832 1405.78 621.021C1409.1 603.505 1397.71 588.875 1374.88 588.875C1351.99 588.875 1335.04 603.519 1331.73 621.021ZM1494.16 537.237H1566.11L1544.81 649.252H1605.22L1595.14 702.186H1462.81L1494.16 537.237ZM1775.41 643.119L1778.62 645.551C1789.9 653.848 1804.1 660.648 1820.65 660.648C1827.75 660.648 1839.49 658.217 1840.91 650.801C1842.32 643.386 1833 642.719 1826.67 641.61L1812.62 639.418C1785.3 635.25 1764.33 621.462 1769.2 595.676C1776.67 556.516 1823.61 534.632 1866.67 534.632C1889.25 534.632 1909.15 539.255 1926.68 549.075L1899.23 591.307C1888.22 584.32 1875.34 578.829 1859.84 578.829C1853.55 578.829 1843.97 580.779 1842.71 587.553C1841.54 593.672 1850.29 594.554 1855.6 595.65L1871.32 598.709C1900.67 604.427 1920.16 617.961 1914.87 645.965C1907.36 685.352 1860.6 704.818 1817.79 704.818C1792.88 704.818 1765.06 699.126 1744.54 689.72L1775.41 643.119V643.119Z" fill="white"/>
<path d="M2022.58 642.466L2019.71 613.366C2018.94 606.365 2018.99 599.151 2019.03 592.137H2016.4L1993.72 642.466H2022.58V642.466ZM1959.95 702.2H1883.81L1983.96 537.238H2063.51L2102.79 702.2H2026.64L2024 681.639H1969.66L1959.95 702.2V702.2Z" fill="white"/>
<path d="M2128.13 537.238H2200.08L2178.78 649.253H2239.18L2229.11 702.187H2096.79L2128.13 537.238ZM2273.81 537.238H2406.96L2398.39 582.316H2337.72L2334.71 598.069H2390.1L2381.97 640.956H2326.57L2323.51 657.135H2386.28L2377.69 702.2H2242.47L2273.81 537.238Z" fill="white"/>
<path d="M1297.7 240.768L1388.53 237.361L1312.31 488.538H1475.3L1551.49 237.361L1640.29 240.768L1676.45 121.513H1333.85L1297.7 240.768V240.768ZM960.225 305.981C937.432 423.74 812.565 494.35 675.753 494.35C538.969 494.35 441.384 423.767 464.177 305.981C486.489 190.6 612.812 115.674 749.022 115.674C885.219 115.674 982.55 190.626 960.225 305.981V305.981ZM627.95 307.931C619.866 349.79 648.819 378.515 698.172 378.515C747.526 378.515 787.58 349.803 795.69 307.931C803.212 268.999 777.4 236.399 725.655 236.399C673.896 236.373 635.485 268.999 627.95 307.931Z" fill="white"/>
<path d="M909.575 460.763C956.083 481.658 1019.06 494.351 1075.58 494.351C1172.52 494.351 1278.44 451.036 1295.4 363.418C1307.44 301.118 1263.33 270.937 1196.77 258.285L1161.22 251.471C1149.2 249.012 1129.34 247.088 1131.97 233.434C1134.9 218.35 1156.57 213.955 1170.85 213.955C1205.92 213.955 1235.12 226.126 1260.05 241.704L1322.23 147.767C1282.43 125.869 1237.43 115.675 1186.27 115.675C1088.73 115.675 982.349 164.347 965.515 251.471C954.399 308.907 1001.99 339.57 1063.83 348.815L1095.62 353.665C1110.02 356.137 1131.16 357.566 1127.95 374.107C1124.75 390.647 1098.14 396.004 1082.06 396.004C1044.57 396.004 1012.41 380.92 986.852 362.429L979.57 357.072L909.575 460.763V460.763ZM1993.71 130.759C1961.11 121.019 1924.06 115.675 1887.16 115.675C1755.72 115.675 1636.26 201.342 1615.54 308.426C1595.27 413.079 1679.5 494.364 1807.37 494.364C1836.51 494.364 1898.01 489.982 1926.2 479.761L1957.52 342.509C1927.27 363.431 1895.02 376.578 1857.54 376.578C1808.79 376.578 1772.57 345.422 1780.4 305.046C1788.12 265.125 1834.12 233.501 1882.87 233.501C1919.75 233.501 1949.15 250.535 1971.49 270.523L1993.71 130.759V130.759ZM2254.67 115.675C2118.48 115.675 1992.16 190.6 1969.82 305.968C1947.04 423.741 2044.63 494.351 2181.44 494.351C2318.21 494.351 2443.12 423.768 2465.88 305.968C2488.17 190.627 2390.85 115.675 2254.67 115.675ZM2231.31 236.373C2283.06 236.373 2308.9 268.96 2301.32 307.905C2293.24 349.764 2253.17 378.489 2203.8 378.489C2154.44 378.489 2125.5 349.777 2133.6 307.905C2141.13 269 2179.57 236.373 2231.31 236.373V236.373ZM506.182 48.3916C465.499 36.621 419.339 30.1543 373.339 30.1543C209.392 30.1543 60.3828 133.698 34.557 263.135C9.31908 389.632 114.333 487.858 273.817 487.858C310.17 487.858 386.913 482.567 422.011 470.235L461.05 304.298C423.374 329.616 383.105 345.502 336.37 345.502C275.54 345.502 230.382 307.839 240.135 258.979C249.768 210.748 307.111 172.484 367.914 172.484C413.888 172.484 450.589 193.085 478.419 217.201L506.182 48.3916V48.3916Z" fill="white"/>
<path d="M2365.59 470.69C2368.03 457.863 2382.31 447.549 2397.87 447.549C2413.28 447.549 2423.76 457.877 2421.33 470.69C2418.84 483.582 2404.49 493.897 2389.05 493.897C2373.51 493.897 2363.17 483.542 2365.59 470.69ZM2414.05 470.69C2416 460.375 2408.61 453.601 2396.69 453.601C2384.59 453.601 2374.79 460.375 2372.87 470.69C2370.92 481.004 2378.09 487.844 2390.21 487.844C2402.13 487.844 2412.09 481.017 2414.05 470.69ZM2404.13 482.794H2396.93L2392.39 472.52H2387.68L2385.73 482.794H2379.62L2384.22 458.544H2398.35C2404.59 458.544 2407.95 460.268 2406.88 465.973C2406.07 470.128 2402.81 472.266 2399.05 472.56L2404.13 482.794V482.794ZM2395.21 467.884C2398.27 467.884 2400.9 467.884 2401.41 465.305C2401.81 463.167 2399.16 463.167 2396.1 463.167H2389.48L2388.61 467.884H2395.21V467.884Z" fill="white"/>
<path d="M45.9536 702.467H808.743L808.69 702.2H808.049L798.429 660.248H45.9536V702.467ZM45.9536 642.505H794.327L784.588 600.3H45.9536V642.505ZM45.9536 582.29H780.205L776.919 566.912L770.158 537.559H45.9536V582.29ZM1639.87 537.238H1773L1764.42 582.316H1703.78L1700.77 598.069H1756.16L1748.04 640.956H1692.65L1689.57 657.135H1752.33L1743.76 702.2H1608.51L1639.87 537.238Z" fill="white"/>
</g>
<defs>
<clipPath id="clip0">
<rect width="2500" height="735" fill="white"/>
</clipPath>
</defs>
</svg>
