<svg width="418" height="93" viewBox="0 0 418 93" fill="none" xmlns="http://www.w3.org/2000/svg">
<path d="M146.291 6.65349C151.087 6.65349 154.755 7.52685 157.295 9.27357C159.868 11.0203 161.154 13.7515 161.154 17.4673C161.154 19.4046 160.805 21.0719 160.106 22.4693C159.439 23.8349 158.455 24.9623 157.152 25.8516C155.85 26.709 154.262 27.3442 152.389 27.7571C150.515 28.1699 148.371 28.3764 145.958 28.3764H142.956V40H136.954V7.46333C138.351 7.14574 139.892 6.93931 141.575 6.84404C143.29 6.717 144.862 6.65349 146.291 6.65349ZM146.72 11.846C145.195 11.846 143.941 11.8937 142.956 11.9889V23.2315H145.862C148.752 23.2315 150.975 22.8345 152.532 22.0405C154.088 21.2148 154.866 19.6745 154.866 17.4196C154.866 16.3399 154.659 15.4347 154.246 14.7043C153.834 13.9738 153.262 13.4022 152.532 12.9893C151.801 12.5765 150.928 12.2906 149.911 12.1318C148.927 11.9413 147.863 11.846 146.72 11.846ZM172.018 23.4697C172.018 25.2799 172.24 26.9313 172.685 28.424C173.129 29.8849 173.764 31.1394 174.59 32.1874C175.448 33.2037 176.48 33.9976 177.687 34.5693C178.893 35.1409 180.259 35.4268 181.783 35.4268C183.276 35.4268 184.626 35.1409 185.833 34.5693C187.039 33.9976 188.056 33.2037 188.881 32.1874C189.739 31.1394 190.39 29.8849 190.835 28.424C191.279 26.9313 191.502 25.2799 191.502 23.4697C191.502 21.6594 191.279 20.0239 190.835 18.563C190.39 17.0703 189.739 15.8158 188.881 14.7996C188.056 13.7515 187.039 12.9417 185.833 12.37C184.626 11.7984 183.276 11.5125 181.783 11.5125C180.259 11.5125 178.893 11.7984 177.687 12.37C176.48 12.9417 175.448 13.7515 174.59 14.7996C173.764 15.8476 173.129 17.1021 172.685 18.563C172.24 20.0239 172.018 21.6594 172.018 23.4697ZM197.79 23.4697C197.79 26.2962 197.361 28.7892 196.504 30.9488C195.678 33.1084 194.534 34.9186 193.074 36.3795C191.644 37.8087 189.961 38.8884 188.024 39.6189C186.087 40.3493 184.022 40.7146 181.831 40.7146C179.64 40.7146 177.56 40.3493 175.59 39.6189C173.653 38.8884 171.954 37.8087 170.493 36.3795C169.064 34.9186 167.921 33.1084 167.063 30.9488C166.206 28.7892 165.777 26.2962 165.777 23.4697C165.777 20.6431 166.206 18.166 167.063 16.0381C167.921 13.8786 169.08 12.0683 170.541 10.6074C172.034 9.14653 173.748 8.05086 175.686 7.32042C177.623 6.58997 179.671 6.22474 181.831 6.22474C183.991 6.22474 186.039 6.58997 187.976 7.32042C189.914 8.05086 191.597 9.14653 193.026 10.6074C194.487 12.0683 195.646 13.8786 196.504 16.0381C197.361 18.166 197.79 20.6431 197.79 23.4697ZM225.716 34.8075V40H204.851V6.98695H210.853V34.8075H225.716ZM251.64 34.8075V40H230.775V6.98695H236.777V34.8075H251.64ZM268.673 40.7146C266.418 40.7146 264.481 40.397 262.861 39.7618C261.242 39.0949 259.892 38.1739 258.812 36.9988C257.764 35.8237 256.986 34.4422 256.478 32.8543C255.97 31.2664 255.716 29.5197 255.716 27.6142V6.98695H261.766V27.0425C261.766 28.5352 261.924 29.8214 262.242 30.9012C262.591 31.9492 263.068 32.8067 263.671 33.4736C264.306 34.1405 265.037 34.6328 265.862 34.9504C266.72 35.268 267.673 35.4268 268.721 35.4268C269.769 35.4268 270.721 35.268 271.579 34.9504C272.436 34.6328 273.167 34.1405 273.77 33.4736C274.405 32.8067 274.882 31.9492 275.199 30.9012C275.549 29.8214 275.723 28.5352 275.723 27.0425V6.98695H281.773V27.6142C281.773 29.5197 281.504 31.2664 280.964 32.8543C280.455 34.4422 279.662 35.8237 278.582 36.9988C277.534 38.1739 276.184 39.0949 274.533 39.7618C272.881 40.397 270.928 40.7146 268.673 40.7146ZM312.935 6.98695V12.1795H302.788V40H296.738V12.1795H286.591V6.98695H312.935ZM317.989 6.98695H323.991V40H317.989V6.98695ZM337.282 23.4697C337.282 25.2799 337.504 26.9313 337.949 28.424C338.394 29.8849 339.029 31.1394 339.854 32.1874C340.712 33.2037 341.744 33.9976 342.951 34.5693C344.158 35.1409 345.523 35.4268 347.048 35.4268C348.54 35.4268 349.89 35.1409 351.097 34.5693C352.304 33.9976 353.32 33.2037 354.146 32.1874C355.003 31.1394 355.654 29.8849 356.099 28.424C356.544 26.9313 356.766 25.2799 356.766 23.4697C356.766 21.6594 356.544 20.0239 356.099 18.563C355.654 17.0703 355.003 15.8158 354.146 14.7996C353.32 13.7515 352.304 12.9417 351.097 12.37C349.89 11.7984 348.54 11.5125 347.048 11.5125C345.523 11.5125 344.158 11.7984 342.951 12.37C341.744 12.9417 340.712 13.7515 339.854 14.7996C339.029 15.8476 338.394 17.1021 337.949 18.563C337.504 20.0239 337.282 21.6594 337.282 23.4697ZM363.054 23.4697C363.054 26.2962 362.625 28.7892 361.768 30.9488C360.942 33.1084 359.799 34.9186 358.338 36.3795C356.909 37.8087 355.226 38.8884 353.288 39.6189C351.351 40.3493 349.287 40.7146 347.095 40.7146C344.904 40.7146 342.824 40.3493 340.855 39.6189C338.918 38.8884 337.218 37.8087 335.758 36.3795C334.328 34.9186 333.185 33.1084 332.328 30.9488C331.47 28.7892 331.041 26.2962 331.041 23.4697C331.041 20.6431 331.47 18.166 332.328 16.0381C333.185 13.8786 334.344 12.0683 335.805 10.6074C337.298 9.14653 339.013 8.05086 340.95 7.32042C342.887 6.58997 344.936 6.22474 347.095 6.22474C349.255 6.22474 351.303 6.58997 353.241 7.32042C355.178 8.05086 356.861 9.14653 358.29 10.6074C359.751 12.0683 360.91 13.8786 361.768 16.0381C362.625 18.166 363.054 20.6431 363.054 23.4697ZM392.362 40C391.282 38.1898 390.076 36.2525 388.742 34.1882C387.408 32.0921 386.026 29.996 384.597 27.9C383.168 25.7722 381.707 23.7237 380.215 21.7547C378.754 19.7539 377.356 17.9595 376.022 16.3716V40H370.115V6.98695H375.022C376.292 8.32081 377.658 9.90874 379.119 11.7507C380.58 13.561 382.041 15.4506 383.502 17.4196C384.994 19.3887 386.423 21.3736 387.789 23.3744C389.186 25.3434 390.425 27.1854 391.505 28.9004V6.98695H397.459V40H392.362ZM146.291 50.6535C151.087 50.6535 154.755 51.5268 157.295 53.2736C159.868 55.0203 161.154 57.7515 161.154 61.4673C161.154 63.4046 160.805 65.0719 160.106 66.4693C159.439 67.8349 158.455 68.9623 157.152 69.8516C155.85 70.709 154.262 71.3442 152.389 71.7571C150.515 72.1699 148.371 72.3764 145.958 72.3764H142.956V84H136.954V51.4633C138.351 51.1457 139.892 50.9393 141.575 50.844C143.29 50.717 144.862 50.6535 146.291 50.6535ZM146.72 55.846C145.195 55.846 143.941 55.8937 142.956 55.9889V67.2315H145.862C148.752 67.2315 150.975 66.8345 152.532 66.0405C154.088 65.2148 154.866 63.6745 154.866 61.4196C154.866 60.3399 154.659 59.4347 154.246 58.7043C153.834 57.9738 153.262 57.4022 152.532 56.9893C151.801 56.5765 150.928 56.2906 149.911 56.1318C148.927 55.9413 147.863 55.846 146.72 55.846ZM176.21 50.6535C180.974 50.6535 184.61 51.5268 187.119 53.2736C189.66 55.0203 190.93 57.688 190.93 61.2767C190.93 65.7547 188.723 68.7876 184.308 70.3756C184.912 71.106 185.594 71.9953 186.357 73.0433C187.119 74.0913 187.897 75.2346 188.691 76.4732C189.485 77.68 190.247 78.9345 190.978 80.2366C191.708 81.507 192.359 82.7614 192.931 84H186.214C185.61 82.8567 184.959 81.7134 184.261 80.5701C183.562 79.395 182.847 78.2676 182.117 77.1878C181.418 76.0762 180.72 75.0441 180.021 74.0913C179.322 73.1068 178.671 72.2334 178.068 71.4712C177.623 71.503 177.242 71.5189 176.924 71.5189C176.607 71.5189 176.305 71.5189 176.019 71.5189H173.113V84H167.111V51.4633C168.572 51.1457 170.128 50.9393 171.779 50.844C173.431 50.717 174.908 50.6535 176.21 50.6535ZM176.639 55.846C175.368 55.846 174.193 55.8937 173.113 55.9889V66.6598H175.733C177.194 66.6598 178.481 66.5804 179.592 66.4216C180.704 66.2628 181.625 65.977 182.355 65.5641C183.117 65.1513 183.689 64.5955 184.07 63.8968C184.451 63.1981 184.642 62.3089 184.642 61.2291C184.642 60.2128 184.451 59.3553 184.07 58.6567C183.689 57.958 183.133 57.4022 182.403 56.9893C181.704 56.5765 180.862 56.2906 179.878 56.1318C178.893 55.9413 177.814 55.846 176.639 55.846ZM202.547 67.4697C202.547 69.2799 202.769 70.9313 203.214 72.424C203.658 73.8849 204.294 75.1394 205.119 76.1874C205.977 77.2037 207.009 77.9976 208.216 78.5693C209.423 79.1409 210.788 79.4268 212.313 79.4268C213.805 79.4268 215.155 79.1409 216.362 78.5693C217.569 77.9976 218.585 77.2037 219.411 76.1874C220.268 75.1394 220.919 73.8849 221.364 72.424C221.808 70.9313 222.031 69.2799 222.031 67.4697C222.031 65.6594 221.808 64.0239 221.364 62.563C220.919 61.0703 220.268 59.8158 219.411 58.7996C218.585 57.7515 217.569 56.9417 216.362 56.37C215.155 55.7984 213.805 55.5125 212.313 55.5125C210.788 55.5125 209.423 55.7984 208.216 56.37C207.009 56.9417 205.977 57.7515 205.119 58.7996C204.294 59.8476 203.658 61.1021 203.214 62.563C202.769 64.0239 202.547 65.6594 202.547 67.4697ZM228.319 67.4697C228.319 70.2962 227.89 72.7892 227.033 74.9488C226.207 77.1084 225.064 78.9186 223.603 80.3795C222.174 81.8087 220.49 82.8884 218.553 83.6189C216.616 84.3493 214.552 84.7146 212.36 84.7146C210.169 84.7146 208.089 84.3493 206.12 83.6189C204.182 82.8884 202.483 81.8087 201.022 80.3795C199.593 78.9186 198.45 77.1084 197.592 74.9488C196.735 72.7892 196.306 70.2962 196.306 67.4697C196.306 64.6431 196.735 62.166 197.592 60.0381C198.45 57.8786 199.609 56.0683 201.07 54.6074C202.563 53.1465 204.278 52.0509 206.215 51.3204C208.152 50.59 210.201 50.2247 212.36 50.2247C214.52 50.2247 216.568 50.59 218.506 51.3204C220.443 52.0509 222.126 53.1465 223.555 54.6074C225.016 56.0683 226.175 57.8786 227.033 60.0381C227.89 62.166 228.319 64.6431 228.319 67.4697ZM245.336 84.3811C243.59 84.3811 241.827 84.3176 240.049 84.1906C238.27 84.0953 236.714 83.873 235.38 83.5236V51.4633C236.079 51.3363 236.825 51.2251 237.619 51.1299C238.413 51.0028 239.223 50.9076 240.049 50.844C240.874 50.7805 241.684 50.7329 242.478 50.7011C243.304 50.6694 244.082 50.6535 244.812 50.6535C246.813 50.6535 248.671 50.8123 250.386 51.1299C252.101 51.4157 253.578 51.9079 254.816 52.6066C256.087 53.3053 257.071 54.2263 257.77 55.3696C258.469 56.5129 258.818 57.9262 258.818 59.6094C258.818 61.1656 258.437 62.4994 257.675 63.611C256.944 64.7225 255.912 65.6118 254.578 66.2787C256.579 66.9456 258.056 67.9302 259.009 69.2323C259.961 70.5344 260.438 72.1858 260.438 74.1866C260.438 77.5848 259.199 80.1413 256.722 81.8563C254.245 83.5395 250.45 84.3811 245.336 84.3811ZM241.287 69.137V79.1886C241.954 79.2521 242.669 79.2997 243.431 79.3315C244.193 79.3632 244.892 79.3791 245.527 79.3791C246.766 79.3791 247.909 79.2997 248.957 79.1409C250.037 78.9821 250.958 78.7122 251.72 78.3311C252.514 77.9182 253.133 77.3783 253.578 76.7114C254.054 76.0445 254.292 75.187 254.292 74.139C254.292 72.2652 253.61 70.9631 252.244 70.2327C250.878 69.5022 248.989 69.137 246.575 69.137H241.287ZM241.287 64.4208H245.527C247.814 64.4208 249.608 64.1032 250.91 63.4681C252.212 62.8011 252.863 61.6261 252.863 59.9429C252.863 58.3549 252.18 57.2275 250.815 56.5606C249.481 55.8937 247.734 55.5602 245.575 55.5602C244.654 55.5602 243.828 55.5761 243.097 55.6078C242.399 55.6396 241.795 55.6872 241.287 55.7507V64.4208ZM267.165 84V50.987H288.364V56.0842H273.168V64.2303H286.697V69.2323H273.168V78.9027H289.508V84H267.165Z" fill="white"/>
<mask id="mask0" mask-type="alpha" maskUnits="userSpaceOnUse" x="0" y="0" width="118" height="71">
<path fill-rule="evenodd" clip-rule="evenodd" d="M95.2329 29.5705L95.3169 27.535C95.3309 27.1971 95.3379 26.8572 95.3379 26.5156C95.3379 13.1138 84.4737 2.24956 71.0719 2.24956C62.6602 2.24956 55.247 6.52784 50.8905 13.0366L49.7114 14.7981L48.0008 13.5463C45.3901 11.6359 42.1734 10.5087 38.6875 10.5087C29.9672 10.5087 22.898 17.5779 22.898 26.2982C22.898 26.6889 22.9121 27.0759 22.9399 27.4588L23.0951 29.5999L20.9487 29.6382C10.4702 29.8251 2.03277 38.3785 2.03277 48.9022C2.03277 59.5431 9.54154 70.3472 20.1825 70.3472L102.8 65.7009C111.276 59.7478 115.478 58.5862 115.768 48.9022C115.768 38.5182 107.553 30.0521 97.2686 29.6501L95.2329 29.5705ZM97.4421 27.6227C108.769 28.115 117.801 37.4538 117.801 48.9022C117.801 60.6657 108.265 70.202 96.5013 70.202H21.2998C9.53627 70.202 0 60.6657 0 48.9022C0 37.9555 8.25784 28.9375 18.8839 27.7378C19.5512 27.6625 20.2279 27.618 20.9124 27.6058C20.8811 27.174 20.8652 26.738 20.8652 26.2982C20.8652 26.0764 20.8692 25.8555 20.8773 25.6356C21.2258 16.0996 29.0664 8.47592 38.6875 8.47592C42.0833 8.47592 45.2573 9.42564 47.9583 11.074C48.3847 11.3342 48.7994 11.6118 49.2012 11.9059C49.5787 11.3419 49.9774 10.7934 50.3962 10.2614C55.2116 4.14457 62.6831 0.216797 71.0719 0.216797C85.5963 0.216797 97.3707 11.9912 97.3707 26.5156C97.3707 26.8461 97.3646 27.1751 97.3525 27.5026C97.3511 27.5414 97.3496 27.5801 97.348 27.6188C97.3794 27.6201 97.4107 27.6214 97.4421 27.6227Z" fill="#0959A3"/>
</mask>
<g mask="url(#mask0)">
<path d="M20.473 60.6187L41.5267 51.9068L75.2125 66.8622L111.802 62.361L127.193 51.9068L114.851 15.317L72.8894 -3.12305L37.6063 3.99163L0.580978 21.8509L-3.33936 62.361L11.3256 69.4757L20.473 60.6187Z" fill="white"/>
</g>
<path d="M79.3921 50.972C45.6516 31.2391 21.5623 54.393 12.4866 68.3162C50.4297 42.2916 49.6803 71.5887 81.3106 77.6712C98.0571 80.8915 116.593 68.171 117.755 50.4569C112.673 63.6698 103.09 64.8314 79.3921 50.972Z" fill="white"/>
<path d="M58.0351 72.3487C40.0739 56.4084 28.442 60.5986 16.1116 68.8672C35.9221 57.2692 48.3158 76.9836 59.9448 84.0428C73.7506 92.4234 94.0861 87.1928 100.725 76.9836C94.6444 82.6504 73.4141 85.9974 58.0351 72.3487Z" fill="white"/>
</svg>
