<svg width="184" height="28" viewBox="0 0 184 28" fill="none" xmlns="http://www.w3.org/2000/svg">
<path d="M38.7524 24V4.657H51.4254V7.354H41.9714V12.951H50.2364V15.677H41.9424V21.303H51.4254V24H38.7524ZM68.2146 14.372V24H65.1696V14.778C65.1696 14.2947 65.0826 13.821 64.9086 13.357C64.7346 12.893 64.3963 12.5063 63.8936 12.197C63.4103 11.8877 62.6853 11.733 61.7186 11.733C61.1773 11.733 60.6456 11.7813 60.1236 11.878C59.6209 11.9747 59.1279 12.11 58.6446 12.284V24H55.5996V10.631C56.4503 10.1863 57.4943 9.82867 58.7316 9.558C59.9883 9.268 61.1966 9.123 62.3566 9.123C64.2513 9.123 65.6626 9.49033 66.5906 10.225C67.3639 9.85767 68.1663 9.587 68.9976 9.413C69.8289 9.21967 70.6506 9.123 71.4626 9.123C73.5119 9.123 75.0006 9.558 75.9286 10.428C76.8566 11.2787 77.3206 12.5933 77.3206 14.372V24H74.2756V14.778C74.2756 14.2947 74.1886 13.821 74.0146 13.357C73.8406 12.893 73.5023 12.5063 72.9996 12.197C72.5163 11.8877 71.7913 11.733 70.8246 11.733C69.8193 11.733 68.8816 11.994 68.0116 12.516C68.1469 13.0573 68.2146 13.676 68.2146 14.372ZM88.064 24.435C86.0726 24.435 84.497 23.942 83.337 22.956C82.1963 21.97 81.626 20.5103 81.626 18.577V9.442H84.671V18.142C84.671 19.3793 84.9416 20.2977 85.483 20.897C86.0243 21.477 86.8846 21.767 88.064 21.767C89.224 21.767 90.0746 21.477 90.616 20.897C91.1766 20.2977 91.457 19.3793 91.457 18.142V9.442H94.386V18.577C94.386 20.5103 93.8253 21.97 92.704 22.956C91.5826 23.942 90.036 24.435 88.064 24.435ZM110.367 24.319C109.4 24.319 108.55 24.261 107.815 24.145C107.1 24.0483 106.433 23.884 105.814 23.652C105.215 23.42 104.596 23.1397 103.958 22.811V19.621C104.712 20.2203 105.621 20.7133 106.684 21.1C107.767 21.4867 108.927 21.68 110.164 21.68C111.363 21.68 112.252 21.4383 112.832 20.955C113.431 20.4523 113.731 19.766 113.731 18.896C113.731 18.2193 113.509 17.678 113.064 17.272C112.639 16.8467 112.068 16.489 111.353 16.199C110.638 15.909 109.874 15.619 109.062 15.329C108.231 15.039 107.428 14.7007 106.655 14.314C105.882 13.908 105.244 13.357 104.741 12.661C104.258 11.965 104.016 11.008 104.016 9.79C104.016 8.92 104.238 8.06933 104.683 7.238C105.128 6.38733 105.824 5.69133 106.771 5.15C107.738 4.58933 109.014 4.309 110.599 4.309C111.372 4.309 112.039 4.35733 112.6 4.454C113.18 4.55067 113.721 4.70533 114.224 4.918C114.746 5.11133 115.307 5.353 115.906 5.643V8.775C115.171 8.311 114.417 7.89533 113.644 7.528C112.871 7.16067 111.952 6.96733 110.889 6.948C109.69 6.92867 108.791 7.16067 108.192 7.644C107.593 8.12733 107.293 8.73633 107.293 9.471C107.293 10.1477 107.467 10.689 107.815 11.095C108.163 11.4817 108.637 11.8103 109.236 12.081C109.855 12.3323 110.57 12.5837 111.382 12.835C112.329 13.1443 113.228 13.5117 114.079 13.937C114.949 14.3623 115.655 14.9327 116.196 15.648C116.737 16.3633 117.008 17.3203 117.008 18.519C117.008 19.5243 116.776 20.4717 116.312 21.361C115.867 22.231 115.152 22.9463 114.166 23.507C113.199 24.0483 111.933 24.319 110.367 24.319ZM125.953 24.435C124.967 24.435 124.02 24.2997 123.111 24.029C122.202 23.7583 121.458 23.2847 120.878 22.608C120.298 21.9313 120.008 20.984 120.008 19.766C120.008 18.1613 120.472 16.9723 121.4 16.199C122.347 15.4063 123.643 15.01 125.286 15.01C126.233 15.01 127.065 15.1067 127.78 15.3C128.515 15.4933 129.133 15.735 129.636 16.025V14.662C129.636 13.6373 129.317 12.893 128.679 12.429C128.06 11.9457 127.19 11.704 126.069 11.704C125.238 11.704 124.387 11.8393 123.517 12.11C122.666 12.3613 121.961 12.719 121.4 13.183V10.341C121.941 9.993 122.724 9.703 123.749 9.471C124.774 9.239 125.847 9.123 126.968 9.123C127.877 9.123 128.766 9.268 129.636 9.558C130.525 9.848 131.25 10.3507 131.811 11.066C132.391 11.7813 132.681 12.748 132.681 13.966L132.652 20.926C132.652 21.8733 132.352 22.5983 131.753 23.101C131.173 23.6037 130.38 23.9517 129.375 24.145C128.37 24.3383 127.229 24.435 125.953 24.435ZM123.024 19.621C123.024 20.201 123.188 20.6747 123.517 21.042C123.846 21.39 124.252 21.651 124.735 21.825C125.238 21.9797 125.76 22.057 126.301 22.057C127.422 22.057 128.254 21.9797 128.795 21.825C129.356 21.651 129.636 21.2933 129.636 20.752V17.939C129.191 17.7457 128.689 17.591 128.128 17.475C127.587 17.359 127.007 17.301 126.388 17.301C124.145 17.301 123.024 18.0743 123.024 19.621ZM143.397 24.435C141.406 24.435 139.83 23.942 138.67 22.956C137.53 21.97 136.959 20.5103 136.959 18.577V9.442H140.004V18.142C140.004 19.3793 140.275 20.2977 140.816 20.897C141.358 21.477 142.218 21.767 143.397 21.767C144.557 21.767 145.408 21.477 145.949 20.897C146.51 20.2977 146.79 19.3793 146.79 18.142V9.442H149.719V18.577C149.719 20.5103 149.159 21.97 148.037 22.956C146.916 23.942 145.369 24.435 143.397 24.435ZM158.88 24L152.761 9.442H156.038L160.62 20.665L164.912 9.442H168.073L161.925 24H158.88ZM176.386 24.435C174.24 24.435 172.529 23.7873 171.253 22.492C169.997 21.1773 169.368 19.2827 169.368 16.808C169.368 14.2753 169.958 12.3613 171.137 11.066C172.336 9.75133 173.999 9.094 176.125 9.094C177.691 9.094 178.958 9.442 179.924 10.138C180.891 10.834 181.587 11.8103 182.012 13.067C182.457 14.3043 182.67 15.7543 182.65 17.417H172.413C172.51 18.8477 172.935 19.94 173.689 20.694C174.443 21.4287 175.507 21.796 176.879 21.796C177.846 21.796 178.726 21.68 179.518 21.448C180.33 21.1967 181.017 20.9163 181.577 20.607V23.449C180.881 23.7583 180.108 24 179.257 24.174C178.407 24.348 177.45 24.435 176.386 24.435ZM176.038 11.588C175.052 11.588 174.26 11.849 173.66 12.371C173.061 12.8737 172.674 13.8017 172.5 15.155H179.547C179.431 13.9177 179.083 13.0187 178.503 12.458C177.943 11.878 177.121 11.588 176.038 11.588Z" fill="#282828"/>
<path fill-rule="evenodd" clip-rule="evenodd" d="M6.88674 1.05371L14.4401 5.61494L21.9934 1.05371V2.10895H21.9936V26.1574H27.6586V1.05371H28.8804V27.3792H20.7717V26.7683H20.7715V7.7184L14.4401 11.5679L8.1086 7.7184V27.3792H7.60885V27.3804H0V1.05486H6.88674V1.05371ZM6.88674 2.27672H1.22186V13.6067H6.88674V2.27672ZM6.88674 14.8286H1.22186V26.1585H6.88674V14.8286Z" fill="#282828"/>
</svg>
