<svg width="345" height="465" viewBox="0 0 345 465" fill="none" xmlns="http://www.w3.org/2000/svg">
<g clip-path="url(#clip0)">
<mask id="mask0" mask-type="alpha" maskUnits="userSpaceOnUse" x="-138" y="-35" width="500" height="500">
<rect x="-138" y="-35" width="500" height="500" fill="#C4C4C4"/>
</mask>
<g mask="url(#mask0)">
<path fill-rule="evenodd" clip-rule="evenodd" d="M275.545 263.771C275.545 263.771 247.771 252.538 191.125 243.484C134.48 234.434 78.1263 262.757 66.1791 269.314C66.1791 269.314 37.2204 283.159 17.3877 341.865C-2.44508 400.568 3.76936 468.365 4.00737 473.72" fill="white"/>
<path fill-rule="evenodd" clip-rule="evenodd" d="M164.497 5.09416C164.497 5.09416 212.646 -14.4661 253.079 56.8603C270.835 88.1862 268.781 142.104 287.026 177.009C303.746 208.996 289.302 242.902 268.399 261.022C267.065 262.178 265.706 263.267 264.328 264.291C263.347 265.018 262.395 265.719 261.475 266.396C237.95 283.676 234.314 284.516 242.115 292.849L175.871 321.785L104.156 297.045" fill="white"/>
<path fill-rule="evenodd" clip-rule="evenodd" d="M165.136 5.72086L158.024 5.27615C158.024 5.27615 101.05 -11.5157 71.1376 78.2186C61.9832 105.683 56.6434 122.466 40.242 180.824C31.6892 211.254 43.9273 234.435 60.8389 250.243C85.8858 273.659 114.24 275.801 102.797 297.158C102.797 297.158 108.315 306.691 118.361 293.97C128.405 281.25 179.009 42.8434 179.009 42.8434L165.136 5.72086Z" fill="white"/>
<path fill-rule="evenodd" clip-rule="evenodd" d="M5.48779 472.609L7.49332 462.196L218.048 257.784L252.656 261.301L265.95 262.654L256.207 254.386L275.495 262.676C275.495 262.676 310.394 278.5 331.147 357.746C342.797 402.219 344 473.079 344 473.079L5.48779 472.609Z" fill="white"/>
<path fill-rule="evenodd" clip-rule="evenodd" d="M6.77867 473.595C6.77867 473.595 2.83155 394.348 15.0309 357.501C32.1739 305.723 57.0445 278.834 68.2091 272.136C80.4542 264.789 91.6495 267.238 96.1976 275.286C100.746 283.331 108.093 287.18 103.894 297.327C103.894 297.327 112.293 297.674 128.734 278.784C128.734 278.784 143.428 299.776 168.268 314.82C168.268 314.82 196.957 302.923 203.953 270.037C203.953 270.037 220.748 300.123 243.139 292.776C243.139 292.776 228.793 285.78 248.385 276.335L265.18 262.34C265.18 262.34 308.265 279.47 326.754 360.301C335.207 397.245 337.931 433.757 338.579 455.249C338.871 464.898 338.742 471.518 338.526 473.795L6.77867 473.595Z" fill="#FFD935"/>
<path d="M90.4248 161.529C90.4248 161.529 91.053 189.419 118.315 210.787C145.115 231.794 177.713 227.81 197.273 215.857C229.711 196.033 229.31 161.363 229.87 160.802" stroke="black" stroke-width="3.3924" stroke-linecap="round" stroke-linejoin="round"/>
<path d="M155.625 48.9716C148.761 42.107 106.001 35.233 94.5979 117.248C84.2851 191.421 61.7926 192.21 61.083 191.856" stroke="black" stroke-width="3.3924" stroke-linecap="round" stroke-linejoin="round"/>
<path d="M166.307 48.2102C166.686 48.5891 195.676 28.3743 215.13 79.486C227.277 111.401 221.233 151.577 256.705 173.699" stroke="black" stroke-width="3.3924" stroke-linecap="round" stroke-linejoin="round"/>
<path d="M157.072 4.6365C157.072 4.6365 100.098 -12.1554 70.1863 77.5789C61.0322 105.04 55.6921 121.826 39.2907 180.184C30.7382 210.615 42.976 233.795 59.8879 249.604C84.9348 273.016 113.288 275.158 101.845 296.519" stroke="black" stroke-width="3.3924" stroke-linecap="round" stroke-linejoin="round"/>
<path d="M163.545 4.45491C163.545 4.45491 211.698 -15.1085 252.127 56.218C269.887 87.547 267.829 141.465 286.074 176.37C303.862 210.395 286.381 246.594 263.376 263.652C237.302 282.984 233.056 283.551 241.163 292.21" stroke="black" stroke-width="3.3924" stroke-linecap="round" stroke-linejoin="round"/>
<path fill-rule="evenodd" clip-rule="evenodd" d="M191.248 122.481C192.425 122.481 193.383 123.912 193.383 125.675V125.963C193.383 127.726 192.425 129.158 191.248 129.158C190.067 129.158 189.112 127.726 189.112 125.963V125.675C189.112 123.912 190.067 122.481 191.248 122.481Z" fill="black" stroke="black" stroke-width="3.3924" stroke-linecap="round" stroke-linejoin="round"/>
<path d="M137.052 179.025C137.052 179.025 144.067 189.31 161.222 190.14C178.38 190.969 185.574 179.348 185.574 179.348" stroke="black" stroke-width="3.3924" stroke-linecap="round" stroke-linejoin="round"/>
<path d="M136.845 221.606C136.845 221.606 146.609 268.212 112.095 294.098" stroke="black" stroke-width="3.3924" stroke-linecap="round" stroke-linejoin="round"/>
<path d="M230.312 292.373C230.312 292.373 197.539 286.636 191.194 219.603" stroke="black" stroke-width="3.3924" stroke-linecap="round" stroke-linejoin="round"/>
<path d="M65.2279 268.675C65.2279 268.675 36.2692 282.52 16.4365 341.223C-3.39625 399.928 2.81819 467.722 3.0562 473.078" stroke="black" stroke-width="3.3924" stroke-linecap="round" stroke-linejoin="round"/>
<path d="M274.249 262.954C274.249 262.954 309.442 277.861 330.199 357.107C341.846 401.577 343.051 472.436 343.051 472.436" stroke="black" stroke-width="3.3924" stroke-linecap="round" stroke-linejoin="round"/>
<path d="M131.94 282.592C131.94 282.592 158.143 313.683 169.909 312.506C175.661 311.932 193.001 296.891 202.124 276.266" stroke="black" stroke-width="3.3924" stroke-linecap="round" stroke-linejoin="round"/>
<path d="M161.503 148.602C161.503 148.602 157.629 155.492 161.074 158.72" stroke="black" stroke-width="3.3924" stroke-linecap="round" stroke-linejoin="round"/>
<path fill-rule="evenodd" clip-rule="evenodd" d="M130.391 123.354C131.568 123.354 132.523 124.782 132.523 126.545V126.836C132.523 128.6 131.568 130.028 130.391 130.028C129.21 130.028 128.255 128.6 128.255 126.836V126.545C128.255 124.782 129.21 123.354 130.391 123.354Z" fill="black" stroke="black" stroke-width="3.3924" stroke-linecap="round" stroke-linejoin="round"/>
<path d="M179.588 109.346C179.588 109.346 192.491 96.8855 207.711 110.997" stroke="black" stroke-width="3.3924" stroke-linecap="round" stroke-linejoin="round"/>
<path d="M139.363 109.062C139.363 109.062 122.48 97.1613 110.583 112.935" stroke="black" stroke-width="3.3924" stroke-linecap="round" stroke-linejoin="round"/>
</g>
</g>
<defs>
<clipPath id="clip0">
<rect width="345" height="465" fill="white"/>
</clipPath>
</defs>
</svg>
