<svg width="200" height="200" viewBox="0 0 200 200" fill="none" xmlns="http://www.w3.org/2000/svg">
<mask id="mask0" mask-type="alpha" maskUnits="userSpaceOnUse" x="0" y="0" width="200" height="200">
<circle cx="100" cy="100" r="100" fill="#C4C4C4"/>
</mask>
<g mask="url(#mask0)">
<rect x="-14.354" y="-3.82812" width="231.1" height="214.833" fill="white"/>
<path d="M79 84.5V107L92 115.5H109L125.5 107V89.5V84.5L109 77V74L114 69V53L109 44H100.5H92V53V69L96 74V77L83 80.5L79 84.5Z" fill="#FFD935"/>
</g>
<path d="M155.344 73.6244C155.348 68.1041 154.497 62.6165 152.821 57.3555L148.575 58.7108C153.161 73.1284 150.849 88.8543 142.311 101.344L145.984 103.858C152.1 94.9635 155.364 84.4189 155.344 73.6244V73.6244Z" fill="#393939"/>
<path d="M74.2235 33.1206L71.7068 29.4414C52.1843 42.7874 43.7248 67.3576 50.8943 89.8938L55.1399 88.5385C48.5705 67.8791 56.3268 45.3562 74.2235 33.1206Z" fill="#393939"/>
<path d="M58.7884 97.0715C58.0281 95.6804 57.3351 94.2476 56.7238 92.8096L52.6211 94.5527C53.2896 96.1132 54.0479 97.6879 54.8745 99.2065L58.7884 97.0715Z" fill="#393939"/>
<path d="M96.1681 71.6309C94.1851 70.6501 92.9339 68.6253 92.9431 66.4137V53.5678C92.9431 48.6446 96.9345 44.6541 101.858 44.6541C106.781 44.6541 110.772 48.6446 110.772 53.5678V66.4137C110.781 68.6253 109.53 70.6501 107.547 71.6309C106.792 72.0085 106.315 72.781 106.315 73.6251V78.0829C106.315 79.1045 107.011 79.9955 108.002 80.2445L119.08 83.0143C122.056 83.7583 124.143 86.4322 124.144 89.5V100.368H128.601V89.5C128.606 84.3849 125.125 79.925 120.162 78.6891L110.772 76.3418V74.8936C113.569 72.9831 115.238 69.8112 115.229 66.4249V53.5678C115.229 46.183 109.243 40.1963 101.858 40.1963C94.4729 40.1963 88.4863 46.183 88.4863 53.5678V66.4137C88.474 69.804 90.1437 72.9811 92.9441 74.8936V76.3418L83.5569 78.6891C78.5929 79.924 75.1096 84.3839 75.1148 89.5V100.368H79.5726V89.5C79.5726 86.4322 81.6597 83.7583 84.6356 83.0143L95.7139 80.2445C96.7049 79.9955 97.4009 79.1045 97.4009 78.0829V73.6251C97.4009 72.781 96.9243 72.0085 96.1681 71.6309V71.6309Z" fill="#393939"/>
<path d="M84.0293 93.6816H88.4861V104.825H84.0293V93.6816Z" fill="#393939"/>
<path d="M115.229 93.6816H119.687V104.825H115.229V93.6816Z" fill="#393939"/>
<path d="M39.4568 158.311C39.4579 155.243 41.5449 152.57 44.5209 151.825L55.5992 149.055C56.5902 148.807 57.2862 147.915 57.2862 146.893V142.437C57.2903 141.587 56.8126 140.81 56.0533 140.43C54.0745 139.451 52.8243 137.433 52.8283 135.224V122.379C52.8283 117.456 56.8198 113.465 61.743 113.465C66.6663 113.465 70.6577 117.456 70.6577 122.379V135.224C70.6659 137.437 69.4157 139.461 67.4327 140.441C66.6734 140.821 66.1958 141.599 66.1999 142.447V146.905C66.1999 147.926 66.8959 148.818 67.8869 149.066L78.9651 151.836C81.937 152.58 84.0231 155.247 84.0292 158.311V162.767H88.486V158.311C88.4911 153.195 85.01 148.736 80.0469 147.5L70.6577 145.162V143.713C73.4541 141.803 75.1237 138.631 75.1145 135.245V122.379C75.1145 114.993 69.1279 109.008 61.743 109.008C54.3582 109.008 48.3715 114.994 48.3715 122.379V135.224C48.3593 138.616 50.0289 141.792 52.8294 143.704V145.153L43.4422 147.5C38.4781 148.735 34.9949 153.195 35 158.311V162.767H39.4579V158.311H39.4568Z" fill="#393939"/>
<path d="M160.276 147.5L150.887 145.162V143.713C153.683 141.803 155.353 138.631 155.344 135.245V122.378C155.344 114.994 149.357 109.007 141.972 109.007C134.587 109.007 128.601 114.994 128.601 122.378V135.224C128.588 138.616 130.258 141.792 133.058 143.704V145.152L123.671 147.5C118.707 148.735 115.224 153.194 115.229 158.311V162.767H119.687V158.311C119.687 155.243 121.774 152.57 124.75 151.825L135.828 149.055C136.819 148.807 137.515 147.915 137.515 146.893V142.437C137.52 141.588 137.042 140.81 136.282 140.43C134.303 139.451 133.053 137.433 133.058 135.224V122.379C133.058 117.456 137.049 113.465 141.972 113.465C146.895 113.465 150.887 117.456 150.887 122.379V135.224C150.896 137.437 149.645 139.461 147.662 140.441C146.902 140.821 146.425 141.599 146.429 142.447V146.905C146.429 147.926 147.125 148.818 148.117 149.066L159.195 151.836C162.166 152.58 164.252 155.247 164.258 158.311V162.767H168.715V158.311C168.72 153.195 165.239 148.736 160.276 147.5V147.5Z" fill="#393939"/>
<path d="M146.43 73.6244C146.458 49.0083 126.527 29.0296 101.91 29C77.2944 28.9704 57.3147 48.9031 57.2862 73.5192C57.2596 95.5737 73.3672 114.331 95.1717 117.639V122.653C93.9409 122.653 92.9428 123.652 92.9428 124.882V153.853C92.9428 158.776 96.9342 162.768 101.857 162.768C106.781 162.768 110.772 158.776 110.772 153.853V124.882C110.772 123.652 109.774 122.653 108.543 122.653V117.639C130.302 114.325 146.39 95.6339 146.43 73.6244V73.6244ZM61.743 73.6244C61.743 51.4699 79.7029 33.5099 101.857 33.5099C124.012 33.5099 141.972 51.4699 141.972 73.6244C141.972 95.7788 124.012 113.739 101.857 113.739C79.7131 113.713 61.7685 95.7686 61.743 73.6244V73.6244ZM106.314 153.853C106.314 156.315 104.319 158.311 101.857 158.311C99.3958 158.311 97.4006 156.315 97.4006 153.853V127.11H106.314V153.853ZM104.086 122.653H99.6285V118.082C100.37 118.12 101.104 118.197 101.857 118.197C102.611 118.197 103.344 118.12 104.086 118.082V122.653Z" fill="#393939"/>
</svg>
