<svg width="200" height="200" viewBox="0 0 200 200" fill="none" xmlns="http://www.w3.org/2000/svg">
<mask id="mask0" mask-type="alpha" maskUnits="userSpaceOnUse" x="0" y="0" width="200" height="200">
<circle cx="100" cy="100" r="100" fill="#C4C4C4"/>
</mask>
<g mask="url(#mask0)">
<rect x="-14.354" y="-3.82812" width="231.1" height="214.833" fill="white"/>
<path d="M146 41.725C156.8 45.325 159.166 59.5584 159 66.225V112.725H135.5V103.225H115.5V88.2246H102C104.666 81.8913 110 68.6247 110 66.225C110 63.2255 112 55.225 115.5 48.725C119 42.225 132.5 37.225 146 41.725Z" fill="#FFD935"/>
</g>
<path d="M135.068 37C120.087 37 107.943 48.9779 107.943 63.7536V65.4412L99.7216 87.7496C99.4926 88.377 99.5857 89.0749 99.972 89.6223C100.361 90.1757 101 90.5062 101.683 90.5073H112.116V102.855C112.116 103.992 113.05 104.913 114.202 104.913H135.068V113.145C135.068 114.281 136.002 115.203 137.154 115.203H160.106C161.259 115.203 162.193 114.281 162.193 113.145V63.7536C162.193 48.9779 150.049 37 135.068 37ZM158.02 111.087H139.241V102.855C139.241 101.719 138.307 100.797 137.154 100.797H116.289V88.4493C116.289 87.3128 115.355 86.3913 114.202 86.3913H104.667L111.991 66.5113C112.073 66.287 112.115 66.0503 112.116 65.8116V63.7536C112.116 51.2512 122.392 41.1159 135.068 41.1159C147.744 41.1159 158.02 51.2512 158.02 63.7536V111.087Z" fill="#393939"/>
<path d="M130.999 63.5273C127.92 66.5574 122.936 66.5574 119.857 63.5273L116.894 66.4497C121.61 71.0917 129.246 71.0917 133.962 66.4497L130.999 63.5273Z" fill="#393939"/>
<path d="M99.4714 130.966L91.2504 108.658V106.97C91.2504 92.1947 79.1061 80.2168 64.1252 80.2168C49.1443 80.2168 37 92.1947 37 106.97V156.362C37 157.498 37.9343 158.42 39.0866 158.42H62.0387C63.191 158.42 64.1252 157.498 64.1252 156.362V148.13H84.9907C86.143 148.13 87.0773 147.208 87.0773 146.072V133.724H97.5101C98.1929 133.723 98.8319 133.392 99.221 132.839C99.6073 132.292 99.7004 131.594 99.4714 130.966ZM84.9907 129.608C83.8384 129.608 82.9042 130.53 82.9042 131.666V144.014H62.0387C60.8864 144.014 59.9521 144.935 59.9521 146.072V154.304H41.1731V106.97C41.1731 94.468 51.4491 84.3327 64.1252 84.3327C76.8013 84.3327 87.0773 94.468 87.0773 106.97V109.028C87.0776 109.267 87.1201 109.504 87.2025 109.728L94.5263 129.608H84.9907Z" fill="#393939"/>
<path d="M79.3361 106.744C76.2574 109.774 71.2726 109.774 68.1939 106.744L65.231 109.666C69.9468 114.308 77.5831 114.308 82.299 109.666L79.3361 106.744Z" fill="#393939"/>
<path d="M70.3847 53.4639C64.6229 53.4639 59.9519 58.0709 59.9519 63.7537V69.0839L57.2603 66.4085L54.2974 69.3308L60.557 75.5047C61.3684 76.3117 62.6897 76.3171 63.5079 75.5166C63.5121 75.5127 63.516 75.5086 63.5199 75.5047L69.7796 69.3308L66.8167 66.4085L64.125 69.0839V63.7537C64.125 60.3439 66.9275 57.5798 70.3847 57.5798H95.4234V53.4639H70.3847Z" fill="#393939"/>
<path d="M103.77 53.4639H99.5967V57.5798H103.77V53.4639Z" fill="#393939"/>
<path d="M151.155 119.916C150.344 119.109 149.023 119.104 148.205 119.905C148.2 119.908 148.196 119.913 148.193 119.916L141.933 126.09L144.896 129.013L147.587 126.337V135.783C147.587 139.193 144.785 141.957 141.328 141.957H99.5967V146.073H141.328C147.09 146.073 151.761 141.466 151.761 135.783V126.337L154.452 129.013L157.415 126.09L151.155 119.916Z" fill="#393939"/>
<path d="M95.4236 141.957H91.2505V146.073H95.4236V141.957Z" fill="#393939"/>
</svg>
