<svg width="200" height="200" viewBox="0 0 200 200" fill="none" xmlns="http://www.w3.org/2000/svg">
<mask id="mask0" mask-type="alpha" maskUnits="userSpaceOnUse" x="0" y="0" width="200" height="200">
<circle cx="100" cy="100" r="100" fill="#C4C4C4"/>
</mask>
<g mask="url(#mask0)">
<rect x="-14.354" y="-3.82812" width="231.1" height="214.833" fill="white"/>
<rect x="46" y="68" width="42" height="32" fill="#FFD935"/>
<rect x="114" y="66" width="42" height="32" fill="#FFD935"/>
</g>
<path d="M114.443 109.021H154.892C155.968 109.021 156.839 108.149 156.839 107.073C156.839 105.997 155.968 105.125 154.892 105.125H114.443C113.367 105.125 112.495 105.997 112.495 107.073C112.495 108.149 113.367 109.021 114.443 109.021Z" fill="#393939"/>
<path d="M114.443 117.67H154.892C155.968 117.67 156.839 116.798 156.839 115.722C156.839 114.646 155.968 113.774 154.892 113.774H114.443C113.367 113.774 112.495 114.646 112.495 115.722C112.495 116.798 113.367 117.67 114.443 117.67Z" fill="#393939"/>
<path d="M162.823 43H107.023C104.766 43 102.929 44.8364 102.929 47.0937V149.933C102.929 152.656 105.144 154.871 107.867 154.871H112.495V161.134H88.2177V154.871H93.0503C95.7728 154.871 97.9878 152.656 97.9878 149.933V124.964C97.9878 123.888 97.1159 123.016 96.04 123.016C94.964 123.016 94.0922 123.888 94.0922 124.964V149.933C94.0922 150.508 93.6248 150.975 93.0503 150.975H88.2177V138.561C88.2177 136.524 86.5606 134.867 84.5237 134.867H79.8994V133.225C79.8994 131.463 78.4656 130.029 76.7035 130.029H46.6179C44.8559 130.029 43.422 131.463 43.422 133.225V140.405C43.422 142.167 44.8559 143.601 46.6179 143.601H76.7038C78.4659 143.601 79.8997 142.167 79.8997 140.405V138.763H84.3222V150.975H38.9377C38.363 150.975 37.8955 150.507 37.8955 149.933V57.4091H94.0922V115.723C94.0922 116.799 94.964 117.671 96.04 117.671C97.1159 117.671 97.9878 116.799 97.9878 115.723V55.4613V47.0937C97.9878 44.8366 96.1517 43 93.8943 43H38.0937C35.8364 43 34 44.8364 34 47.0937V149.933C34 152.656 36.215 154.871 38.9377 154.871H84.3222V161.336C84.3222 163.373 85.9793 165.03 88.0162 165.03H112.697C114.734 165.03 116.391 163.373 116.391 161.336V154.871H161.98C164.702 154.871 166.917 152.656 166.917 149.933V47.0937C166.917 44.8364 165.081 43 162.823 43V43ZM76.0039 139.705H47.3176V133.925H76.0039V139.705ZM49.7957 46.8955H93.8943C94.0034 46.8955 94.0922 46.9844 94.0922 47.0937V53.511H49.7957V46.8955ZM37.8955 47.0937C37.8955 46.9844 37.9844 46.8955 38.0937 46.8955H45.9004V53.511H37.8955V47.0937ZM163.021 47.0937V53.511H118.725V46.8955H162.823C162.933 46.8955 163.021 46.9844 163.021 47.0937V47.0937ZM107.023 46.8955H114.83V53.511H106.825V47.0937C106.825 46.9844 106.914 46.8955 107.023 46.8955ZM161.979 150.975H107.867C107.292 150.975 106.825 150.508 106.825 149.933V57.4091H163.021V149.933C163.021 150.508 162.554 150.975 161.979 150.975Z" fill="#393939"/>
<path d="M154.155 64.9785C154.134 64.9785 134.567 64.9785 134.567 64.9785C133.491 64.9785 132.619 65.8503 132.619 66.9263C132.619 68.0022 133.491 68.8741 134.567 68.8741H149.452L135.003 80.0865L120.555 68.8741H125.477C126.553 68.8741 127.424 68.0022 127.424 66.9263C127.424 65.8503 126.553 64.9785 125.477 64.9785H115.691C113.929 64.9785 112.495 66.4123 112.495 68.1752V96.929C112.495 98.6916 113.928 100.126 115.691 100.126H154.155C155.889 100.126 157.351 98.6797 157.351 96.929C157.351 96.9288 157.351 68.1752 157.351 68.1752C157.352 66.3799 155.878 64.9785 154.155 64.9785V64.9785ZM116.391 70.5728L131.827 82.5519L116.391 94.5309V70.5728ZM120.555 96.2299L135.004 85.0175L149.452 96.2299H120.555ZM153.456 94.4063L138.181 82.5519L153.456 70.6974V94.4063Z" fill="#393939"/>
<path d="M114.443 126.32H154.892C155.968 126.32 156.839 125.449 156.839 124.373C156.839 123.297 155.968 122.425 154.892 122.425H114.443C113.367 122.425 112.495 123.297 112.495 124.373C112.495 125.449 113.367 126.32 114.443 126.32Z" fill="#393939"/>
<path d="M114.443 134.832H154.892C155.968 134.832 156.839 133.96 156.839 132.884C156.839 131.808 155.968 130.937 154.892 130.937H114.443C113.367 130.937 112.495 131.808 112.495 132.884C112.495 133.96 113.367 134.832 114.443 134.832Z" fill="#393939"/>
<path d="M114.443 143.402H154.892C155.968 143.402 156.839 142.531 156.839 141.455C156.839 140.379 155.968 139.507 154.892 139.507H114.443C113.367 139.507 112.495 140.379 112.495 141.455C112.495 142.531 113.367 143.402 114.443 143.402Z" fill="#393939"/>
<path d="M88.5655 68.1749C88.5655 66.9624 87.7682 65.7439 86.6574 65.252C86.2629 65.0775 85.8277 64.9785 85.369 64.9785H46.9057C45.1431 64.9785 43.709 66.4123 43.709 68.1752V96.929C43.709 98.6916 45.1428 100.126 46.9057 100.126H85.369C85.8292 100.126 86.266 100.026 86.6618 99.8499C87.8102 99.3393 88.5652 98.1982 88.5652 96.929C88.5655 96.9288 88.5655 68.1762 88.5655 68.1749V68.1749ZM80.6661 68.8741L66.2177 80.0865L51.7697 68.8741H80.6661ZM47.6048 70.5728L63.041 82.5519L47.6048 94.5309V70.5728ZM51.7697 96.2299L66.218 85.0175L80.6663 96.2299H51.7697ZM84.6699 94.4063L69.3947 82.5519L84.6699 70.6974V94.4063Z" fill="#393939"/>
<path d="M86.106 105.125H45.6572C44.5813 105.125 43.7095 105.997 43.7095 107.073C43.7095 108.149 44.5813 109.021 45.6572 109.021H86.106C87.182 109.021 88.0538 108.149 88.0538 107.073C88.0538 105.997 87.1817 105.125 86.106 105.125Z" fill="#393939"/>
<path d="M86.106 113.774H45.6572C44.5813 113.774 43.7095 114.646 43.7095 115.722C43.7095 116.798 44.5813 117.67 45.6572 117.67H86.106C87.182 117.67 88.0538 116.798 88.0538 115.722C88.0538 114.646 87.1817 113.774 86.106 113.774Z" fill="#393939"/>
<path d="M86.106 122.425H45.6572C44.5813 122.425 43.7095 123.297 43.7095 124.373C43.7095 125.449 44.5813 126.32 45.6572 126.32H86.106C87.182 126.32 88.0538 125.449 88.0538 124.373C88.0538 123.297 87.1817 122.425 86.106 122.425Z" fill="#393939"/>
</svg>
