<svg width="200" height="200" viewBox="0 0 200 200" fill="none" xmlns="http://www.w3.org/2000/svg">
<mask id="mask0" mask-type="alpha" maskUnits="userSpaceOnUse" x="0" y="0" width="200" height="200">
<circle cx="100" cy="100" r="100" fill="#C4C4C4"/>
</mask>
<g mask="url(#mask0)">
<rect x="-14.354" y="-3.82812" width="231.1" height="214.833" fill="white"/>
<path d="M69.5 33V45.5H79L73 33H69.5Z" fill="#FFD935"/>
<path d="M107.5 81V69H121.5V92.5L107.5 95.5V81Z" fill="#FFD935"/>
<path d="M155.5 88.5C143.1 89.7 139.667 84 139.5 81L132 98.5L139.5 104.5L144.5 113L155.5 88.5Z" fill="#FFD935"/>
<path d="M78.5 62.5C74.1 62.9 70.3333 59.6667 69 58L78.5 105.5L90.5 111L97 102.5L85 54.5C84.6667 57 82.9 62.1 78.5 62.5Z" fill="#FFD935"/>
<path d="M56.5 76L35 85.5L53 127H56.5C56.5 115.8 65.8333 109.333 70.5 107.5L56.5 76Z" fill="#FFD935"/>
</g>
<path d="M146.909 126.469C147.608 122.734 147.59 118.899 146.856 115.171L156.936 90.6869C156.937 90.6706 156.937 90.6544 156.936 90.6381C158.569 86.137 160.963 81.9538 164.012 78.273C164.77 77.4666 165.076 76.3305 164.824 75.2493L160.691 57.2842C160.642 57.0964 160.568 56.9161 160.471 56.7481C160.453 56.7149 160.446 56.675 160.429 56.644C160.411 56.613 160.334 56.5377 160.29 56.4801C160.2 56.3474 160.096 56.2248 159.98 56.1146C159.903 56.0604 159.823 56.0115 159.74 55.9684C159.633 55.8889 159.518 55.8192 159.399 55.7602C159.233 55.6971 159.06 55.6547 158.884 55.6339C158.833 55.6339 158.789 55.6007 158.739 55.5962C158.317 55.5679 157.896 55.6625 157.526 55.8687C157.493 55.8864 157.453 55.8931 157.42 55.913H157.398L141.858 65.6753C140.917 66.2619 140.332 67.2862 140.304 68.4C139.872 73.1829 138.62 77.8544 136.604 82.2072V82.2315L131.566 94.4881C129.094 93.1651 126.447 92.203 123.705 91.6305C124.743 84.42 125.124 77.1291 124.845 69.8487C128.942 64.9012 130.908 58.5129 130.307 52.1007C128.932 39.1906 117.34 29.8669 116.845 29.4749C116.1 28.8849 115.065 28.8406 114.273 29.3647C113.482 29.8889 113.112 30.8639 113.356 31.7853C114.49 36.0694 113.508 40.5906 105.136 49.8877C101.374 53.5434 100.182 59.1252 102.119 64.0139C102.859 65.8837 103.92 67.6082 105.253 69.1088C104.72 72.5313 104.302 75.7721 104.013 78.9287C103.517 84.1497 103.389 89.3995 103.631 94.6387C101.667 95.7102 99.829 96.9993 98.1503 98.4821L87.476 52.5393C87.476 52.4928 87.432 52.4595 87.4188 52.4174C87.383 52.2697 87.3313 52.1264 87.2648 51.9899L76.3616 31.7233C75.2704 29.6948 72.9653 28.6524 70.7338 29.1784C68.5023 29.7044 66.8968 31.6687 66.8141 33.9739L65.9866 57.0007C65.9871 57.1668 66.0056 57.3325 66.0416 57.4946C66.0416 57.5301 66.0416 57.5611 66.0416 57.5943L76.9316 104.372C75.2137 104.449 73.5084 104.705 71.8431 105.136L59.8637 76.018C58.9031 73.792 56.3554 72.7418 54.1194 73.6499L35.8102 81.279C33.5694 82.2204 32.5045 84.8064 33.4267 87.0673L49.6736 126.515C40.1515 127.018 32.7602 135.064 33.006 144.658C33.2517 154.252 41.0451 161.903 50.5804 161.911H147.419C153.71 161.82 159.474 158.357 162.54 152.828C165.606 147.299 165.509 140.544 162.285 135.107C159.06 129.67 153.199 126.377 146.909 126.469ZM144.666 69.131L153.892 63.3361L150.626 71.2753C150.161 72.4057 150.694 73.7019 151.817 74.1705C152.94 74.6391 154.228 74.1025 154.693 72.9721L157.959 65.0329L160.405 75.6945C157.788 78.9069 155.639 82.4773 154.022 86.2986C151.727 87.3692 149.092 87.4247 146.755 86.4518C144.418 85.4789 142.592 83.5663 141.719 81.1771C143.265 77.323 144.257 73.2668 144.666 69.131ZM139.604 86.5223C141.06 88.314 142.95 89.6986 145.091 90.5429C146.793 91.2797 148.624 91.6683 150.476 91.6859C150.922 91.6843 151.367 91.6569 151.81 91.6039L144.787 108.661C142.684 103.994 139.431 99.9459 135.337 96.9004L139.604 86.5223ZM109.452 70.7015L120.509 71.3816C120.577 73.4506 120.553 75.5904 120.485 77.7635C116.801 78.0284 113.1 77.8484 109.458 77.2274C109.181 77.1876 108.91 77.1566 108.635 77.1189C108.855 75.0322 109.124 72.9189 109.447 70.7015H109.452ZM108.402 52.8627C114.245 46.3744 117.274 41.3836 117.978 36.6919C122.178 41.0415 124.951 46.5839 125.921 52.5703C126.383 57.7817 124.782 62.966 121.467 66.9955C117.119 66.7297 112.819 66.4639 108.567 66.1981C106.74 64.4789 105.689 62.0839 105.657 59.5668C105.625 57.0496 106.615 54.6283 108.398 52.8627H108.402ZM108.235 81.5337L108.873 81.6179C111.709 82.0594 114.572 82.3044 117.441 82.3511C118.352 82.3511 119.312 82.278 120.274 82.2027C120.073 85.0537 119.745 88.0309 119.329 91.1078C118.786 91.079 118.253 91.0258 117.707 91.0258C114.385 91.0318 111.087 91.6032 107.953 92.716C107.852 88.9862 107.944 85.2537 108.23 81.5337H108.235ZM91.2109 107.438L84.9142 80.4417C84.6198 79.2704 83.4474 78.5526 82.2787 78.8281C81.11 79.1036 80.3761 80.2708 80.6291 81.4518L86.2876 105.75C84.7318 105.19 83.1246 104.787 81.4896 104.547L71.8299 63.0569C73.1831 63.6771 74.6524 63.9988 76.1393 64.0006C76.2779 64.0006 76.4254 63.9807 76.5662 63.974L78.1223 70.6617C78.2899 71.4444 78.8643 72.0752 79.6245 72.3114C80.3847 72.5476 81.2124 72.3525 81.7893 71.8011C82.3662 71.2497 82.6025 70.4278 82.4074 69.6515L80.8492 62.9595C82.3424 62.2941 83.6595 61.2849 84.6941 60.0133L94.5145 102.277C93.2392 103.878 92.1321 105.607 91.2109 107.438ZM77.7635 59.3687C74.9488 59.9181 72.0749 58.7599 70.4148 56.407L70.6943 48.6051C71.4601 48.7491 72.2372 48.8232 73.0162 48.8266C73.7687 48.8298 74.519 48.7458 75.2523 48.5763C76.737 48.1839 78.1259 47.4887 79.3328 46.5339L83.0391 53.4187C82.5975 56.2752 80.5327 58.6057 77.7635 59.3731V59.3687ZM71.7353 33.491C72.0351 33.4211 72.3445 33.5605 72.4924 33.8321L77.2111 42.6153C76.3599 43.3904 75.3435 43.9587 74.2399 44.2767C73.112 44.485 71.9516 44.4297 70.8483 44.115L71.2071 34.1334C71.219 33.8238 71.4354 33.5607 71.7353 33.491ZM55.8075 77.7347L57.489 81.8239L49.3457 85.2176C48.3803 85.6256 47.8342 86.6617 48.0398 87.6951C48.2455 88.7284 49.146 89.4729 50.193 89.4752C50.4822 89.4745 50.7685 89.4174 51.036 89.3068L59.1792 85.9109L60.8629 90.0046L56.7891 91.7036C55.8182 92.108 55.2667 93.1469 55.4724 94.184C55.678 95.2212 56.5834 95.9673 57.6342 95.9656C57.9226 95.9646 58.2081 95.9074 58.475 95.7973L62.5488 94.0982L64.2325 98.1919L56.0826 101.592C55.1117 101.997 54.5602 103.035 54.7659 104.073C54.9715 105.11 55.877 105.856 56.9277 105.854C57.2162 105.853 57.5017 105.796 57.7685 105.686L65.9118 102.292L67.6923 106.618C60.5204 109.913 55.2614 116.356 53.4415 124.076L37.4895 85.3638L55.8075 77.7347ZM147.419 157.481H50.5804C43.2873 157.481 37.3751 151.531 37.3751 144.19C37.3751 136.85 43.2873 130.899 50.5804 130.899C51.8556 130.895 53.1245 131.08 54.3461 131.448C55.006 131.649 55.7212 131.527 56.2784 131.118C56.8356 130.71 57.1704 130.062 57.183 129.368C57.3396 121.474 61.874 114.331 68.9262 110.872C75.9784 107.412 84.3614 108.217 90.6365 112.956C91.191 113.371 91.9072 113.501 92.5705 113.305C93.2338 113.109 93.767 112.61 94.0105 111.959C98.3104 100.425 110.194 93.6407 122.237 95.8452C134.279 98.0497 143.028 108.611 143.018 120.931C143.022 123.464 142.647 125.984 141.906 128.405C141.675 129.158 141.859 129.978 142.389 130.558C142.919 131.139 143.716 131.392 144.481 131.222C145.446 131.009 146.431 130.9 147.419 130.899C154.712 130.899 160.625 136.85 160.625 144.19C160.625 151.531 154.712 157.481 147.419 157.481Z" fill="#393939"/>
<path d="M118.114 63.7794C118.805 63.782 119.457 63.458 119.875 62.9044C122.623 59.1613 123.685 54.4299 122.802 49.8615C122.615 49.0803 122.021 48.4628 121.252 48.2478C120.483 48.0328 119.658 48.2541 119.097 48.826C118.536 49.3979 118.327 50.2307 118.55 51.0023C119.077 54.2485 118.291 57.5719 116.367 60.2307C115.867 60.9019 115.786 61.8 116.159 62.5505C116.532 63.3009 117.294 63.775 118.128 63.775L118.114 63.7794Z" fill="#393939"/>
<path d="M115.22 130.9C113.584 130.905 111.97 131.284 110.499 132.008C106.54 126.555 99.1475 124.957 93.3135 128.294C87.4795 131.631 85.0593 138.841 87.6872 145.055C88.033 145.872 88.8299 146.402 89.712 146.402C90.0086 146.403 90.3022 146.342 90.5748 146.225C91.1118 145.994 91.5359 145.559 91.7539 145.014C91.9718 144.469 91.9657 143.859 91.7368 143.318C91.2577 142.194 91.0106 140.984 91.0105 139.761C91.0105 134.867 94.952 130.9 99.8141 130.9C103.229 130.883 106.339 132.875 107.77 135.995C107.818 136.067 107.869 136.137 107.924 136.203C107.959 136.279 107.998 136.353 108.041 136.425C108.081 136.473 108.138 136.496 108.182 136.542C108.285 136.65 108.399 136.747 108.523 136.83C108.633 136.915 108.751 136.989 108.875 137.052C109.003 137.106 109.136 137.147 109.271 137.176C109.407 137.211 109.545 137.233 109.685 137.24C109.971 137.238 110.255 137.19 110.526 137.098C110.584 137.087 110.643 137.073 110.7 137.056C110.771 137.01 110.839 136.958 110.904 136.903C110.984 136.868 111.061 136.828 111.135 136.784C112.292 135.843 113.733 135.33 115.22 135.33C117.794 135.335 120.13 136.843 121.207 139.196C121.711 140.309 123.017 140.8 124.123 140.292C125.229 139.785 125.717 138.471 125.212 137.357C123.42 133.426 119.518 130.904 115.22 130.9Z" fill="#393939"/>
<path d="M71.8937 115.507C71.5614 115.615 63.7856 118.322 63.7856 126.47C63.7856 127.693 64.771 128.685 65.9865 128.685C67.202 128.685 68.1874 127.693 68.1874 126.47C68.3671 123.38 70.3872 120.706 73.2979 119.707C74.4526 119.316 75.0744 118.058 74.6866 116.896C74.2989 115.733 73.0485 115.108 71.8937 115.498V115.507Z" fill="#393939"/>
<path d="M102.867 113.111C103.042 113.156 103.221 113.178 103.402 113.178C104.41 113.177 105.289 112.486 105.534 111.501C106.547 107.364 110.185 104.422 114.417 104.317C115.632 104.314 116.615 103.32 116.612 102.096C116.609 100.873 115.621 99.8837 114.406 99.8867C108.15 99.9703 102.745 104.306 101.267 110.424C100.971 111.611 101.688 112.814 102.867 113.111Z" fill="#393939"/>
</svg>
